<svg id="landingsvg" xmlns="http://www.w3.org/2000/svg" xmlns:xlink="http://www.w3.org/1999/xlink" viewBox="450 150 1024 768 " shape-rendering="geometricPrecision" text-rendering="geometricPrecision">
    <style>
        <![CDATA[#landingsvg-female_to {animation: landingsvg-female_to__to 3000ms linear infinite normal forwards}@keyframes landingsvg-female_to__to { 0% {transform: translate(714.446320px,628.925323px);animation-timing-function: cubic-bezier(0.390000,0.575000,0.565000,1)} 16.666667% {transform: translate(723.340622px,600.093192px);animation-timing-function: cubic-bezier(0.390000,0.575000,0.565000,1)} 33.333333% {transform: translate(714.446320px,628.925323px);animation-timing-function: cubic-bezier(0.390000,0.575000,0.565000,1)} 50% {transform: translate(723.340622px,600.093192px);animation-timing-function: cubic-bezier(0.390000,0.575000,0.565000,1)} 66.666667% {transform: translate(714.446320px,628.925323px);animation-timing-function: cubic-bezier(0.390000,0.575000,0.565000,1)} 83.333333% {transform: translate(723.340622px,600.093192px);animation-timing-function: cubic-bezier(0.390000,0.575000,0.565000,1)} 100% {transform: translate(714.446320px,628.925323px)} }#landingsvg-male_to {animation: landingsvg-male_to__to 3000ms linear infinite normal forwards}@keyframes landingsvg-male_to__to { 0% {transform: translate(1193.748871px,502.707367px);animation-timing-function: cubic-bezier(0.390000,0.575000,0.565000,1)} 16.666667% {transform: translate(1184.923769px,470.528432px);animation-timing-function: cubic-bezier(0.390000,0.575000,0.565000,1)} 33.333333% {transform: translate(1193.748871px,502.707367px);animation-timing-function: cubic-bezier(0.390000,0.575000,0.565000,1)} 50% {transform: translate(1184.923769px,470.528432px);animation-timing-function: cubic-bezier(0.390000,0.575000,0.565000,1)} 66.666667% {transform: translate(1193.748871px,502.707367px);animation-timing-function: cubic-bezier(0.390000,0.575000,0.565000,1)} 83.333333% {transform: translate(1184.923769px,470.528432px);animation-timing-function: cubic-bezier(0.390000,0.575000,0.565000,1)} 100% {transform: translate(1193.748871px,502.707367px)} }#landingsvg-question_to {animation: landingsvg-question_to__to 3000ms linear infinite normal forwards}@keyframes landingsvg-question_to__to { 0% {transform: translate(1162.927063px,364.303711px);animation-timing-function: cubic-bezier(0.390000,0.575000,0.565000,1)} 16.666667% {transform: translate(1156.827200px,286.708732px);animation-timing-function: cubic-bezier(0.390000,0.575000,0.565000,1)} 33.333333% {transform: translate(1162.927063px,364.303711px);animation-timing-function: cubic-bezier(0.390000,0.575000,0.565000,1)} 50% {transform: translate(1156.827200px,286.708732px);animation-timing-function: cubic-bezier(0.390000,0.575000,0.565000,1)} 66.666667% {transform: translate(1162.927063px,364.303711px);animation-timing-function: cubic-bezier(0.390000,0.575000,0.565000,1)} 83.333333% {transform: translate(1156.827200px,286.708732px);animation-timing-function: cubic-bezier(0.390000,0.575000,0.565000,1)} 100% {transform: translate(1162.927063px,364.303711px)} }#landingsvg-g25_to {animation: landingsvg-g25_to__to 3000ms linear infinite normal forwards}@keyframes landingsvg-g25_to__to { 0% {transform: translate(687.878387px,418.119431px);animation-timing-function: cubic-bezier(0.390000,0.575000,0.565000,1)} 16.666667% {transform: translate(705.629373px,360.254112px);animation-timing-function: cubic-bezier(0.390000,0.575000,0.565000,1)} 33.333333% {transform: translate(687.878387px,418.119431px);animation-timing-function: cubic-bezier(0.390000,0.575000,0.565000,1)} 50% {transform: translate(705.629373px,360.254112px);animation-timing-function: cubic-bezier(0.390000,0.575000,0.565000,1)} 66.666667% {transform: translate(687.878387px,418.119431px);animation-timing-function: cubic-bezier(0.390000,0.575000,0.565000,1)} 83.333333% {transform: translate(705.629373px,360.254112px);animation-timing-function: cubic-bezier(0.390000,0.575000,0.565000,1)} 100% {transform: translate(687.878387px,418.119431px)} }]]>
    </style>
    <g id="landingsvg-background">
        <g id="landingsvg-g1" opacity="0.41">
            <path
                id="landingsvg-path1"
                d="M523.514400,684.800000C518.813100,583.923100,570.773700,497.280500,649.199200,448.456200C663.714068,439.511956,673.354701,424.433694,675.382100,407.505300Q675.539600,406.146900,675.715900,404.786200C690.095900,294.024400,797.797400,216.215600,912.512300,231.219000C1022.241500,245.570300,1101.234300,301.302700,1089.566000,408.631800C1089.511200,409.136600,1089.451300,409.871100,1089.386500,410.800900C1087.349100,440.049300,1111.231900,464.640200,1141.628200,465.333000Q1151.190100,465.550900,1160.874000,466.518600C1291.784000,479.666900,1386.748500,592.745700,1372.806100,718.989200C1366.429700,776.727600,1338.078400,827.299200,1296.666100,863.819200L614.273000,863.819200C562.401400,816.106300,526.549000,749.914600,523.514400,684.800000Z"
                fill="rgb(197,217,255)"
                stroke="none"
                stroke-width="1"
            />
        </g>
        <circle id="landingsvg-circle1" r="26.674400" transform="matrix(1 0 0 1 601.95100000000002 364.30399999999997)" opacity="0.31" fill="rgb(197,217,255)" stroke="none" stroke-width="1" />
        <circle
            id="landingsvg-circle2"
            r="44.118500"
            transform="matrix(0.70710700000000 -0.70710700000000 0.70710700000000 0.70710700000000 1283.88040016200034 273.48532984199994)"
            opacity="0.31"
            fill="rgb(197,217,255)"
            stroke="none"
            stroke-width="1"
        />
        <path
            id="landingsvg-path2"
            d="M1132.787300,242.570000C1132.787190,251.881950,1125.238283,259.430692,1115.926333,259.430600C1106.614384,259.430508,1099.065626,251.881616,1099.065700,242.569667C1099.065774,233.257717,1106.614650,225.708945,1115.926600,225.709000C1120.398396,225.708973,1124.687042,227.485396,1127.849051,230.647461C1131.011060,233.809527,1132.787406,238.098204,1132.787300,242.570000Z"
            opacity="0.31"
            fill="rgb(197,217,255)"
            stroke="none"
            stroke-width="1"
        />
        <path
            id="landingsvg-path3"
            d="M586.078800,711.142500C582.068800,625.109700,626.383900,551.216400,693.268800,509.576500C705.647702,501.948206,713.869647,489.088686,715.598800,474.651300Q715.732900,473.493200,715.883300,472.332500C728.147300,377.869100,820.000800,311.509700,917.835500,324.305200C1011.418300,336.545200,1078.787400,384.076500,1068.836200,475.612000C1068.789200,476.042000,1068.738100,476.669200,1068.683000,477.462000C1066.945400,502.406700,1087.313700,523.379000,1113.237300,523.970000Q1121.392200,524.155800,1129.651100,524.981000C1241.298400,536.194800,1322.288500,632.634100,1310.397700,740.301000C1304.959600,789.543400,1280.780200,832.673600,1245.461700,863.819100L663.481700,863.819100C619.243400,823.127300,588.666600,766.675400,586.078800,711.142500Z"
            fill="rgb(197,217,255)"
            stroke="none"
            stroke-width="1"
        />
    </g>
    <g id="landingsvg-laptop">
        <g id="landingsvg-g2">
            <path
                id="landingsvg-path4"
                d="M1232.854200,810.148800L692.458000,810.148800L692.458000,477.757200C692.458000,465.068402,702.744303,454.782100,715.433100,454.782100L1209.879100,454.782100C1215.972475,454.782100,1221.816282,457.202684,1226.124949,461.511351C1230.433616,465.820018,1232.854200,471.663825,1232.854200,477.757200Z"
                fill="rgb(236,241,247)"
                stroke="none"
                stroke-width="1"
            />
            <path
                id="landingsvg-path5"
                d="M1234.172100,811.465600L691.139300,811.465600L691.139300,477.757400C691.154565,464.347075,702.021975,453.479665,715.432300,453.464400L1209.878800,453.464400C1223.289220,453.479555,1234.156780,464.346980,1234.172100,477.757400ZM693.775600,808.829300L1231.535600,808.829300L1231.535600,477.757400C1231.522208,465.802169,1221.833831,456.113926,1209.878600,456.100700L715.432300,456.100700C703.477141,456.113982,693.788882,465.802241,693.775600,477.757400Z"
                fill="rgb(36,55,98)"
                stroke="none"
                stroke-width="1"
            />
        </g>
        <rect id="landingsvg-rect1" width="477.720000" height="319.254000" rx="0" ry="0" transform="matrix(1 0 0 1 724.65999999999997 488.67599999999999)" fill="rgb(255,255,255)" stroke="none" stroke-width="1" />
        <rect id="landingsvg-rect2" width="477.720000" height="30.177200" rx="0" ry="0" transform="matrix(1 0 0 1 724.65999999999997 488.61799999999999)" fill="rgb(197,217,255)" stroke="none" stroke-width="1" />
        <path
            id="landingsvg-path6"
            d="M747.300900,509.252800C745.057544,509.253083,743.034939,507.901899,742.176313,505.829362C741.317687,503.756826,741.792152,501.371137,743.378444,499.784844C744.964737,498.198552,747.350426,497.724087,749.422962,498.582713C751.495499,499.441339,752.846683,501.463944,752.846400,503.707300C752.842433,506.768351,750.361951,509.248833,747.300900,509.252800ZM747.300900,500.796800C746.123842,500.796476,745.062505,501.505270,744.611840,502.592637C744.161175,503.680004,744.409945,504.931778,745.242136,505.764198C746.074328,506.596618,747.326033,506.845732,748.413524,506.395366C749.501015,505.945000,750.210100,504.883858,750.210100,503.706800C750.208282,502.100717,748.906982,500.799059,747.300900,500.796800Z"
            fill="rgb(255,255,255)"
            stroke="none"
            stroke-width="1"
        />
        <path
            id="landingsvg-path7"
            d="M766.514600,509.252800C764.271353,509.252598,762.249117,507.901106,761.390869,505.828531C760.532621,503.755956,761.007382,501.370463,762.593769,499.784420C764.180155,498.198377,766.565750,497.724132,768.638139,498.582828C770.710528,499.441524,772.061583,501.464053,772.061300,503.707300C772.057442,506.768864,769.576165,509.249604,766.514600,509.252800ZM766.514600,500.796800C765.337615,500.796800,764.276523,501.505799,763.826111,502.593191C763.375698,503.680584,763.624665,504.932227,764.456919,505.764481C765.289173,506.596735,766.540816,506.845702,767.628209,506.395289C768.715601,505.944877,769.424600,504.883785,769.424600,503.706800C769.422946,502.100337,768.121063,500.798454,766.514600,500.796800Z"
            fill="rgb(255,255,255)"
            stroke="none"
            stroke-width="1"
        />
        <path
            id="landingsvg-path8"
            d="M784.147400,509.252800C781.904044,509.253083,779.881439,507.901899,779.022813,505.829362C778.164187,503.756826,778.638652,501.371137,780.224944,499.784844C781.811237,498.198552,784.196926,497.724087,786.269462,498.582713C788.341999,499.441339,789.693183,501.463944,789.692900,503.707300C789.688933,506.768351,787.208451,509.248833,784.147400,509.252800ZM784.147400,500.796800C782.970342,500.796476,781.909005,501.505270,781.458340,502.592637C781.007675,503.680004,781.256445,504.931778,782.088636,505.764198C782.920828,506.596618,784.172533,506.845732,785.260024,506.395366C786.347515,505.945000,787.056600,504.883858,787.056600,503.706800C787.054782,502.100717,785.753482,500.799059,784.147400,500.796800Z"
            fill="rgb(255,255,255)"
            stroke="none"
            stroke-width="1"
        />
        <polygon
            id="landingsvg-polygon1"
            points="725.977000,807.931000 723.341000,807.931000 723.341000,487.358000 927.310000,487.358000 927.310000,489.994000 725.977000,489.994000 725.977000,807.931000"
            fill="rgb(36,55,98)"
            stroke="none"
            stroke-width="1"
        />
        <g id="landingsvg-g3" opacity="0.4">
            <circle id="landingsvg-circle3" r="53.101200" transform="matrix(1 0 0 1 818.86900000000003 580.89400000000001)" fill="rgb(175,156,218)" stroke="none" stroke-width="1" />
            <path
                id="landingsvg-path9"
                d="M903.415800,648.302900L1174.953700,648.302900C1178.961907,648.302900,1182.211200,651.552193,1182.211200,655.560400L1182.211200,776.864200C1182.211200,780.872407,1178.961907,784.121700,1174.953700,784.121700L903.415500,784.121700C901.490691,784.121700,899.644718,783.357073,898.283673,781.996027C896.922627,780.634982,896.158000,778.789009,896.158000,776.864200L896.158000,655.560600C896.158000,653.635721,896.922662,651.789681,898.283766,650.428596C899.644871,649.067510,901.490921,648.302873,903.415800,648.302900Z"
                fill="rgb(175,156,218)"
                stroke="none"
                stroke-width="1"
            />
            <path
                id="landingsvg-path10"
                d="M926.784500,668.432300L1024.064500,668.432300C1024.508844,668.432300,1024.934988,668.608815,1025.249187,668.923013C1025.563385,669.237212,1025.739900,669.663356,1025.739900,670.107700L1025.739900,714.536700C1025.739900,714.981044,1025.563385,715.407188,1025.249187,715.721387C1024.934988,716.035585,1024.508844,716.212100,1024.064500,716.212100L926.784200,716.212100C926.339936,716.212100,925.913868,716.035617,925.599725,715.721475C925.285583,715.407332,925.109100,714.981264,925.109100,714.537000L925.109100,670.107700C925.109100,669.182402,925.859202,668.432300,926.784500,668.432300Z"
                opacity="0.28"
                fill="rgb(255,255,255)"
                stroke="none"
                stroke-width="1"
            />
            <path
                id="landingsvg-path11"
                d="M1052.193600,668.432300L1149.473600,668.432300C1149.917944,668.432300,1150.344088,668.608815,1150.658287,668.923013C1150.972485,669.237212,1151.149000,669.663356,1151.149000,670.107700L1151.149000,714.536800C1151.149000,714.981144,1150.972485,715.407288,1150.658287,715.721487C1150.344088,716.035685,1149.917944,716.212200,1149.473600,716.212200L1052.193100,716.212200C1051.267968,716.212200,1050.518000,715.462232,1050.518000,714.537100L1050.518000,670.107700C1050.518000,669.663322,1050.694542,669.237147,1051.008784,668.922943C1051.323026,668.608738,1051.749222,668.432247,1052.193600,668.432300Z"
                opacity="0.28"
                fill="rgb(255,255,255)"
                stroke="none"
                stroke-width="1"
            />
            <g id="landingsvg-g4">
                <path
                    id="landingsvg-path12"
                    d="M825.844800,594.832100L825.934800,594.832100C826.965916,594.832100,827.801800,595.667984,827.801800,596.699100L827.801800,600.650000C827.801827,601.145167,827.605134,601.620061,827.254998,601.970198C826.904861,602.320334,826.429967,602.517027,825.934800,602.517000L811.803600,602.517000C810.772468,602.517000,809.936555,601.681132,809.936500,600.650000L809.936500,596.722700C809.936610,595.691591,810.772491,594.855755,811.803600,594.855700L811.806700,594.855700C812.837793,594.855645,813.673645,594.019793,813.673700,592.988700L813.673700,581.320800C813.673700,580.289684,812.837816,579.453800,811.806700,579.453800L811.806700,579.453800C811.311461,579.453800,810.836506,579.257067,810.486320,578.906880C810.136133,578.556694,809.939400,578.081739,809.939400,577.586500L809.939400,573.631000C809.939427,573.135788,810.136174,572.660869,810.486361,572.310720C810.836548,571.960570,811.311488,571.763873,811.806700,571.763900L822.110000,571.763900C822.605194,571.763873,823.080113,571.960577,823.430268,572.310732C823.780423,572.660887,823.977127,573.135806,823.977100,573.631000L823.977100,592.965100C823.977127,593.460372,824.173932,593.935342,824.524208,594.285487C824.874484,594.635631,825.349528,594.832259,825.844800,594.832100Z"
                    fill="rgb(255,255,255)"
                    stroke="none"
                    stroke-width="1"
                />
                <path
                    id="landingsvg-path13"
                    d="M818.615000,559.270000L818.615000,559.270000C820.846230,559.270000,822.655000,561.078770,822.655000,563.310000L822.655000,563.310000C822.655000,565.541230,820.846230,567.350000,818.615000,567.350000L818.615000,567.350000C816.383770,567.350000,814.575000,565.541230,814.575000,563.310000L814.575000,563.310000C814.575000,561.078770,816.383770,559.270000,818.615000,559.270000Z"
                    fill="rgb(255,255,255)"
                    stroke="none"
                    stroke-width="1"
                />
            </g>
            <rect id="landingsvg-rect3" width="234.295000" height="2.636300" rx="0" ry="0" transform="matrix(1 0 0 1 898.45699999999999 548.67200000000003)" fill="rgb(175,156,218)" stroke="none" stroke-width="1" />
            <rect id="landingsvg-rect4" width="234.295000" height="2.636300" rx="0" ry="0" transform="matrix(1 0 0 1 898.45699999999999 611.11699999999996)" fill="rgb(175,156,218)" stroke="none" stroke-width="1" />
            <rect id="landingsvg-rect5" width="98.166300" height="2.636300" rx="0" ry="0" transform="matrix(1 0 0 1 898.45699999999999 575.92100000000005)" fill="rgb(175,156,218)" stroke="none" stroke-width="1" />
            <rect id="landingsvg-rect6" width="102.607000" height="2.636300" rx="0" ry="0" transform="matrix(1 0 0 1 762.65400000000000 732.97100000000000)" fill="rgb(175,156,218)" stroke="none" stroke-width="1" />
            <rect id="landingsvg-rect7" width="102.607000" height="2.636300" rx="0" ry="0" transform="matrix(1 0 0 1 762.65400000000000 760.28200000000004)" fill="rgb(175,156,218)" stroke="none" stroke-width="1" />
            <rect id="landingsvg-rect8" width="102.746000" height="2.636300" rx="0" ry="0" transform="matrix(1 0 0 1 1018.51999999999998 575.92100000000005)" fill="rgb(175,156,218)" stroke="none" stroke-width="1" />
            <rect id="landingsvg-rect9" width="234.295000" height="2.636300" rx="0" ry="0" transform="matrix(1 0 0 1 922.03700000000003 759.32700000000000)" fill="rgb(255,255,255)" stroke="none" stroke-width="1" />
            <rect id="landingsvg-rect10" width="98.166100" height="2.636300" rx="0" ry="0" transform="matrix(1 0 0 1 922.03700000000003 737.85799999999995)" fill="rgb(255,255,255)" stroke="none" stroke-width="1" />
            <rect id="landingsvg-rect11" width="102.746000" height="2.636300" rx="0" ry="0" transform="matrix(1 0 0 1 1042.09999999999991 737.85799999999995)" fill="rgb(255,255,255)" stroke="none" stroke-width="1" />
        </g>
        <path
            id="landingsvg-path14"
            d="M963.951300,480.937100C961.247190,480.937424,958.809173,479.308729,957.774178,476.810531C956.739182,474.312332,957.311051,471.436652,959.223102,469.524514C961.135154,467.612377,964.010809,467.040379,966.509053,468.075263C969.007298,469.110146,970.636102,471.548090,970.635900,474.252200C970.631382,477.942178,967.641278,480.932417,963.951300,480.937100ZM963.951300,470.202600C961.715057,470.202158,959.901860,472.014624,959.901400,474.250867C959.900940,476.487110,961.713390,478.300321,963.949633,478.300800C966.185877,478.301278,967.999103,476.488843,967.999600,474.252600C967.997562,472.017355,966.186544,470.205577,963.951300,470.202600Z"
            fill="rgb(36,55,98)"
            stroke="none"
            stroke-width="1"
        />
        <path
            id="landingsvg-path15"
            d="M983.260000,477.605600C981.828729,477.605600,980.538391,476.743423,979.990667,475.421102C979.442944,474.098780,979.745700,472.576722,980.757761,471.564661C981.769822,470.552600,983.291880,470.249844,984.614202,470.797567C985.936523,471.345291,986.798700,472.635629,986.798700,474.066900C986.796606,476.020402,985.213502,477.603506,983.260000,477.605600ZM983.260000,473.164500C982.895013,473.164500,982.565965,473.384363,982.426291,473.721566C982.286617,474.058770,982.363822,474.446909,982.621907,474.704993C982.879991,474.963078,983.268130,475.040283,983.605334,474.900609C983.942537,474.760935,984.162400,474.431887,984.162400,474.066900C984.162345,473.568541,983.758359,473.164555,983.260000,473.164500Z"
            fill="rgb(36,55,98)"
            stroke="none"
            stroke-width="1"
        />
        <path
            id="landingsvg-path16"
            d="M1286.556100,860.980600L638.756100,860.980600C637.357711,860.980627,636.016590,860.425131,635.027779,859.436321C634.038969,858.447510,633.483473,857.106389,633.483500,855.708000L633.483500,825.966600C633.483500,821.771459,635.150013,817.748139,638.116426,814.781726C641.082839,811.815313,645.106159,810.148800,649.301300,810.148800L1276.011300,810.148800C1280.206458,810.148747,1284.229808,811.815243,1287.196232,814.781668C1290.162657,817.748092,1291.829153,821.771442,1291.829100,825.966600L1291.829100,855.708000C1291.829127,857.106458,1291.273576,858.447640,1290.284679,859.436462C1289.295783,860.425283,1287.954558,860.980733,1286.556100,860.980600Z"
            fill="rgb(36,55,98)"
            stroke="none"
            stroke-width="1"
        />
        <path
            id="landingsvg-path17"
            d="M1286.785200,831.655700L638.526700,831.655700C637.189073,831.655727,635.906223,831.124368,634.960378,830.178522C634.014532,829.232677,633.483173,827.949827,633.483200,826.612200L633.483200,826.612200C633.483531,818.256269,640.257269,811.482531,648.613200,811.482200L1276.697700,811.482200C1280.710425,811.482200,1284.558800,813.076249,1287.396226,815.913674C1290.233651,818.751100,1291.827700,822.599475,1291.827700,826.612200L1291.827700,826.612200C1291.827755,829.397281,1289.570280,831.655203,1286.785200,831.655700Z"
            opacity="0.29"
            fill="rgb(175,156,218)"
            stroke="none"
            stroke-width="1"
        />
        <path
            id="landingsvg-path18"
            d="M1017.930000,836.883700L911.330700,836.883700C904.813367,836.876314,899.532068,831.594434,899.525400,825.077100L899.525400,812.616600C899.531702,811.893085,900.120008,811.309881,900.843550,811.309881C901.567092,811.309881,902.155398,811.893085,902.161700,812.616600L902.161700,825.077100C902.167210,830.138877,906.268924,834.241038,911.330700,834.247100L1017.930000,834.247100C1022.582888,834.241865,1026.353509,830.471288,1026.358800,825.818400L1026.358800,812.616600C1026.365102,811.893085,1026.953408,811.309881,1027.676950,811.309881C1028.400492,811.309881,1028.988798,811.893085,1028.995100,812.616600L1028.995100,825.818700C1028.988266,831.926937,1024.038237,836.876921,1017.930000,836.883700Z"
            fill="rgb(255,255,255)"
            stroke="none"
            stroke-width="1"
        />
        <path
            id="landingsvg-path19"
            d="M1006.377800,831.943300L922.723000,831.943300C917.451863,831.937239,913.180227,827.665737,913.174000,822.394600L913.174000,812.616600C913.180302,811.893085,913.768608,811.309881,914.492150,811.309881C915.215692,811.309881,915.803998,811.893085,915.810300,812.616600L915.810300,822.394600C915.814489,826.210594,918.907006,829.302977,922.723000,829.307000L1006.377800,829.307000C1009.872602,829.303417,1012.704852,826.471302,1012.708600,822.976500L1012.708600,812.616500C1012.714902,811.892985,1013.303208,811.309781,1014.026750,811.309781C1014.750292,811.309781,1015.338598,811.892985,1015.344900,812.616500L1015.344900,822.976500C1015.339554,827.926628,1011.327928,831.938119,1006.377800,831.943300Z"
            fill="rgb(255,255,255)"
            stroke="none"
            stroke-width="1"
        />
        <path
            id="landingsvg-path20"
            d="M730.458400,849.383200C727.579544,849.383281,724.984138,847.649093,723.882513,844.989349C722.780888,842.329606,723.390011,839.268151,725.425827,837.232649C727.461643,835.197148,730.523193,834.588498,733.182766,835.690534C735.842339,836.792570,737.576126,839.388244,737.575600,842.267100C737.570860,846.195678,734.386979,849.379067,730.458400,849.383200ZM730.458400,837.784800C727.983687,837.784690,725.977395,839.790654,725.977100,842.265367C725.976806,844.740080,727.982621,846.746521,730.457334,846.747000C732.932046,846.747479,734.938637,844.741813,734.939300,842.267100C734.936711,839.793214,732.932285,837.788162,730.458400,837.784800Z"
            fill="rgb(255,255,255)"
            stroke="none"
            stroke-width="1"
        />
        <path
            id="landingsvg-path21"
            d="M757.725100,847.127900C754.663211,847.127955,752.180958,844.645956,752.180700,841.584067C752.180442,838.522177,754.662278,836.039760,757.724167,836.039300C760.786056,836.038840,763.268637,838.520511,763.269300,841.582400C763.266545,844.643446,760.786145,847.124427,757.725100,847.127900ZM757.725100,838.675600C756.548806,838.675560,755.488337,839.384175,755.038272,840.470965C754.588208,841.557754,754.837200,842.808647,755.669123,843.640255C756.501046,844.471864,757.752033,844.720382,758.838652,844.269907C759.925271,843.819431,760.633485,842.758694,760.633000,841.582400C760.631235,839.977321,759.330180,838.676757,757.725100,838.675600Z"
            fill="rgb(255,255,255)"
            stroke="none"
            stroke-width="1"
        />
        <path
            id="landingsvg-path22"
            d="M1202.379300,519.913700L927.310000,519.913700C926.586485,519.907398,926.003281,519.319092,926.003281,518.595550C926.003281,517.872008,926.586485,517.283702,927.310000,517.277400L1202.380000,517.277400C1202.853665,517.273274,1203.293126,517.523606,1203.531158,517.933138C1203.769189,518.342671,1203.769189,518.848429,1203.531158,519.257962C1203.293126,519.667494,1202.853665,519.917826,1202.380000,519.913700Z"
            fill="rgb(36,55,98)"
            stroke="none"
            stroke-width="1"
        />
    </g>
    <g id="landingsvg-female_to" transform="translate(714.446320,628.925323)">
        <g id="landingsvg-female" transform="translate(-714.446320,-628.925323)">
            <g id="landingsvg-g5">
                <path
                    id="landingsvg-path23"
                    d="M894.148700,565.235400L534.743700,565.235400C526.264771,565.235455,519.391255,572.108971,519.391200,580.587900L519.391200,723.162200C519.391173,727.233963,521.008649,731.138967,523.887802,734.018157C526.766954,736.897347,530.671937,738.514873,534.743700,738.514900L793.182600,738.514900L837.637500,782.970000L837.637500,738.514900L894.148700,738.514900C898.220489,738.514900,902.125509,736.897388,905.004698,734.018198C907.883888,731.139009,909.501400,727.233989,909.501400,723.162200L909.501400,580.587900C909.501373,576.516137,907.883847,572.611154,905.004657,569.732002C902.125467,566.852849,898.220463,565.235373,894.148700,565.235400Z"
                    fill="rgb(141,113,216)"
                    stroke="none"
                    stroke-width="1"
                />
                <path
                    id="landingsvg-path24"
                    d="M622.141000,730.304200C589.209593,730.304200,559.520843,710.466746,546.918633,680.042054C534.316422,649.617363,541.282555,614.597091,564.568719,591.311212C587.854884,568.025334,622.875241,561.059631,653.299778,573.662215C683.724315,586.264800,703.561404,615.953793,703.561000,648.885200C703.509913,693.830885,667.086685,730.253665,622.141000,730.304200ZM622.141000,570.100200C578.630010,570.100255,543.357366,605.372810,543.357200,648.883800C543.357034,692.394790,578.629410,727.667613,622.140400,727.668000C665.651390,727.668387,700.924392,692.396190,700.925000,648.885200C700.876009,605.394113,665.632086,570.149653,622.141000,570.100000Z"
                    fill="rgb(236,241,247)"
                    stroke="none"
                    stroke-width="1"
                />
              <animateTransform repeatCount="indefinite"/>
            </g>
            <path
                id="landingsvg-path25"
                d="M870.293000,610.782500L733.170600,610.782500C732.447085,610.776198,731.863881,610.187892,731.863881,609.464350C731.863881,608.740808,732.447085,608.152502,733.170600,608.146200L870.293000,608.146200C870.766665,608.142074,871.206126,608.392406,871.444158,608.801938C871.682189,609.211471,871.682189,609.717229,871.444158,610.126762C871.206126,610.536294,870.766665,610.786626,870.293000,610.782500Z"
                fill="rgb(255,255,255)"
                stroke="none"
                stroke-width="1"
            />
            <path
                id="landingsvg-path26"
                d="M870.293000,671.898800L733.170600,671.898800C732.447085,671.892498,731.863881,671.304192,731.863881,670.580650C731.863881,669.857108,732.447085,669.268802,733.170600,669.262500L870.293000,669.262500C870.766665,669.258374,871.206126,669.508706,871.444158,669.918238C871.682189,670.327771,871.682189,670.833529,871.444158,671.243062C871.206126,671.652594,870.766665,671.902926,870.293000,671.898800Z"
                fill="rgb(255,255,255)"
                stroke="none"
                stroke-width="1"
            />
            <path
                id="landingsvg-path27"
                d="M801.732600,641.908200L733.170600,641.908200C732.447085,641.901898,731.863881,641.313592,731.863881,640.590050C731.863881,639.866508,732.447085,639.278202,733.170600,639.271900L801.732600,639.271900C802.206265,639.267774,802.645726,639.518106,802.883758,639.927638C803.121789,640.337171,803.121789,640.842929,802.883758,641.252462C802.645726,641.661994,802.206265,641.912326,801.732600,641.908200Z"
                fill="rgb(255,255,255)"
                stroke="none"
                stroke-width="1"
            />
            <path
                id="landingsvg-path28"
                d="M801.732600,696.621800L733.170600,696.621800C732.447085,696.615498,731.863881,696.027192,731.863881,695.303650C731.863881,694.580108,732.447085,693.991802,733.170600,693.985500L801.732600,693.985500C802.206265,693.981374,802.645726,694.231706,802.883758,694.641238C803.121789,695.050771,803.121789,695.556529,802.883758,695.966062C802.645726,696.375594,802.206265,696.625926,801.732600,696.621800Z"
                fill="rgb(255,255,255)"
                stroke="none"
                stroke-width="1"
            />
            <path
                id="landingsvg-path29"
                d="M868.541200,641.908200L822.144400,641.908200C821.420885,641.901898,820.837681,641.313592,820.837681,640.590050C820.837681,639.866508,821.420885,639.278202,822.144400,639.271900L868.541200,639.271900C869.014865,639.267774,869.454326,639.518106,869.692358,639.927638C869.930389,640.337171,869.930389,640.842929,869.692358,641.252462C869.454326,641.661994,869.014865,641.912326,868.541200,641.908200Z"
                fill="rgb(255,255,255)"
                stroke="none"
                stroke-width="1"
            />
            <g id="landingsvg-g6">
                <path
                    id="landingsvg-path30"
                    d="M687.800000,553.200000C687.445724,549.556903,685.837473,546.149848,683.250000,543.560900C680.691428,540.975914,678.511639,538.041776,676.775500,534.845800C676.337785,533.123269,675.587439,531.495773,674.561800,530.044300C673.131361,526.382660,672.209647,522.542207,671.822400,518.630200L671.144600,511.673300C671.131200,511.549600,671.123000,511.424700,671.108500,511.301300L670.785300,507.985600C670.112161,501.099878,666.975446,494.688739,661.952100,489.931400C654.890566,481.335894,644.652834,475.961757,633.567600,475.031400L633.567600,475.031400C620.831825,473.939782,608.309621,478.814678,599.664200,488.230000C589.507622,493.781965,583.631915,504.847945,584.721900,516.371500L585.200000,521.280000C582.083145,523.759482,580.125582,527.413626,579.788200,531.382100L579.788200,531.382100C579.525750,534.461142,580.255466,537.543374,581.870600,540.177900C572.342324,550.324852,569.068463,564.842069,573.319371,578.096444C577.570279,591.350820,588.676824,601.255991,602.329340,603.968461C615.981856,606.680931,630.031309,601.773731,639.026100,591.151000C643.108547,594.375650,648.049641,596.327695,653.233700,596.763900L653.233700,596.763900C660.274948,597.362569,667.265625,595.139589,672.667856,590.583991C678.070087,586.028393,681.441349,579.513349,682.040000,572.472100L682.040000,572.472100C682.190879,570.680532,682.160223,568.878300,681.948500,567.092900C686.108633,563.738687,688.306742,558.519837,687.800000,553.200000Z"
                    fill="rgb(239,112,134)"
                    stroke="none"
                    stroke-width="1"
                />
                <g id="landingsvg-g7">
                    <g id="landingsvg-g8">
                        <path
                            id="landingsvg-path31"
                            d="M700.279400,553.959200C699.432641,550.196833,699.449564,546.291487,700.328900,542.536600L705.120700,532.139300C705.869095,530.482685,707.724949,529.632169,709.468400,530.146800C709.494300,530.154700,709.520700,530.163100,709.546700,530.171600L715.024400,523.498300C715.724900,522.644900,723.336200,514.379900,723.944400,513.458300C724.633800,512.413000,727.625500,511.332100,728.120300,513.443800C729.033800,517.342400,721.500300,528.448600,721.500300,528.448600C721.500300,528.448600,725.182600,530.040900,725.853600,532.072200C726.524600,534.103500,726.822200,534.789700,726.822200,534.789700C728.126563,536.246738,729.058209,537.998305,729.537300,539.894300L729.914500,540.763300C729.914500,540.763300,730.808200,540.497800,732.193600,544.386600C732.776678,545.904036,732.473492,547.619459,731.405600,548.845100C730.689594,549.698512,729.753897,550.339935,728.699700,550.700000L726.861200,551.354900L728.811200,564.388500L701.911900,562.987500Z"
                            fill="rgb(249,217,235)"
                            stroke="none"
                            stroke-width="1"
                        />
                        <g id="landingsvg-g9">
                            <path
                                id="landingsvg-path32"
                                d="M713.547900,551.186600C712.372900,543.737700,707.790400,541.990900,707.790400,541.990900C707.790400,541.990900,708.813100,539.673100,710.160400,536.341800C710.914899,534.620071,710.861249,532.651382,710.014100,530.973300C709.893644,530.740906,709.713250,530.544941,709.491600,530.405700C708.775900,529.959300,707.000600,529.311300,705.120400,532.139300C704.055684,533.832331,703.129343,535.608530,702.350400,537.450600"
                                fill="rgb(249,217,235)"
                                stroke="none"
                                stroke-width="1"
                            />
                            <path
                                id="landingsvg-path33"
                                d="M713.547300,551.670000C713.309672,551.669763,713.107472,551.496818,713.070400,551.262100C711.957900,544.210300,707.793300,542.511200,707.617000,542.442100L707.146400,542.258100L707.348300,541.795700C707.358300,541.773000,708.383300,539.445700,709.712600,536.160300C710.412871,534.571091,710.367033,532.752219,709.587600,531.200300C709.506893,531.042939,709.385436,530.910120,709.235900,530.815700C708.535900,530.378600,707.119800,530.004700,705.523000,532.406700C704.470614,534.074822,703.557522,535.826854,702.793000,537.645000C702.685636,537.889331,702.400531,538.000364,702.156200,537.893000C701.911869,537.785636,701.800836,537.500531,701.908200,537.256200C702.694667,535.386923,703.634369,533.585886,704.717700,531.871500C706.904500,528.584800,709.120100,529.605300,709.747700,529.995300C710.041779,530.179470,710.281333,530.438841,710.441600,530.746600C711.354972,532.550953,711.416162,534.668618,710.608500,536.522700C709.606900,538.998700,708.776800,540.934600,708.420400,541.756800C709.660400,542.424100,713.027500,544.786200,714.025100,551.111000C714.045253,551.237648,714.014244,551.367113,713.938902,551.470888C713.863560,551.574664,713.750063,551.644241,713.623400,551.664300C713.598203,551.668024,713.572771,551.669929,713.547300,551.670000Z"
                                fill="rgb(36,55,98)"
                                stroke="none"
                                stroke-width="1"
                            />
                        </g>
                    </g>
                    <path
                        id="landingsvg-path34"
                        d="M738.944700,638.815900C738.043000,629.715900,737.260100,620.604000,736.536900,611.487500C735.916900,603.671600,733.768300,571.805100,732.921200,560.649000C732.843211,559.627604,732.354567,558.681432,731.566863,558.026563C730.779158,557.371694,729.759662,557.064054,728.741200,557.173900L701.030200,560.070900C699.842864,560.190299,698.756551,560.791727,698.025139,561.734625C697.293727,562.677524,696.981309,563.879267,697.160900,565.059000C699.950900,583.089000,702.290100,628.564100,702.290100,628.564100L688.438700,614.520800C684.921100,610.954100,681.637600,607.170000,678.273100,603.458300C672.359700,596.934800,664.553800,591.955400,656.853700,587.629500L655.933700,586.800900L656.009100,587.168400C653.760825,585.926849,651.446485,584.808887,649.076400,583.819500L601.042300,583.657900C598.619882,583.681439,596.204907,583.930311,593.828600,584.401300C574.432200,588.040700,558.189500,605.953600,554.148600,628.997200C553.501011,632.680637,553.174651,636.413370,553.173200,640.153300L551.601400,657.707900C555.471860,691.146594,582.285455,717.274725,615.813149,720.278135C649.340843,723.281546,680.371379,702.335093,690.123400,670.116700C696.626100,672.531800,703.208400,674.485500,708.710400,674.695100C714.184200,674.903900,719.586700,673.207700,724.554300,670.806600C729.169200,668.575700,733.652400,665.574600,736.363400,661.095000C740.430000,654.376100,739.688400,646.324800,738.944700,638.815900Z"
                        fill="rgb(36,55,98)"
                        stroke="none"
                        stroke-width="1"
                    />
                </g>
                <g id="landingsvg-g10">
                    <path
                        id="landingsvg-path35"
                        d="M670.803900,543.358100L667.629000,513.314800C667.033727,507.713953,664.670786,502.448060,660.882500,498.280000C659.380891,511.895248,647.877803,522.201567,634.180000,522.204400L609.673400,522.204400L612.559600,549.513600C612.705497,550.807414,612.949364,552.088291,613.289100,553.345200L608.646800,578.402100C606.344600,590.234900,613.677400,601.616900,625.025100,603.824800C636.372800,606.032700,647.438400,598.230600,649.740700,586.398000L652.600700,571.698000C664.488407,567.592986,672.014276,555.876235,670.803900,543.358100Z"
                        fill="rgb(249,217,235)"
                        stroke="none"
                        stroke-width="1"
                    />
                    <path
                        id="landingsvg-path36"
                        d="M643.012900,573.549000C631.647408,574.816734,620.669646,568.976031,615.370500,558.841900L615.049400,560.925800C613.846100,568.734600,621.308500,576.364800,631.716600,577.968700L631.716600,577.968700C639.236600,579.127400,646.218400,576.812700,649.978500,572.500300C648.686777,572.834738,647.373138,573.077937,646.047300,573.228100Z"
                        opacity="0.46"
                        fill="rgb(239,146,199)"
                        stroke="none"
                        stroke-width="1"
                    />
                    <g id="landingsvg-g11">
                        <path
                            id="landingsvg-path37"
                            d="M660.875100,530.955300L660.875100,530.955300C661.279429,530.934943,661.659098,530.754753,661.930539,530.454392C662.201979,530.154032,662.342942,529.758120,662.322400,529.353800L662.168500,526.305200C662.148064,525.900873,661.967841,525.521226,661.667480,525.249783C661.367119,524.978340,660.971226,524.837339,660.566900,524.857800L660.566900,524.857800C660.162617,524.878184,659.782995,525.058354,659.511566,525.358664C659.240137,525.658975,659.099140,526.054821,659.119600,526.459100L659.273800,529.508000C659.294158,529.912293,659.474320,530.291930,659.774637,530.563365C660.074953,530.834800,660.470814,530.975787,660.875100,530.955300Z"
                            fill="rgb(36,55,98)"
                            stroke="none"
                            stroke-width="1"
                        />
                        <g id="landingsvg-g12">
                            <path
                                id="landingsvg-path38"
                                d="M634.158300,534.289200L634.158300,534.289200C634.562602,534.268868,634.942256,534.088714,635.213696,533.788391C635.485136,533.488068,635.626114,533.092193,635.605600,532.687900L635.451700,529.639000C635.408876,528.797172,634.691950,528.149316,633.850100,528.191700L633.850100,528.191700C633.445772,528.212109,633.066118,528.392328,632.794686,528.692699C632.523254,528.993069,632.382284,529.388977,632.402800,529.793300L632.557000,532.842100C632.577409,533.246357,632.757593,533.625944,633.057904,533.897336C633.358215,534.168728,633.754047,534.309688,634.158300,534.289200Z"
                                fill="rgb(36,55,98)"
                                stroke="none"
                                stroke-width="1"
                            />
                            <path
                                id="landingsvg-path39"
                                d="M655.674700,519.111800C656.367941,519.210646,657.073535,519.179344,657.755300,519.019500C658.482900,518.900300,659.217400,518.796700,659.859300,518.726900C660.502900,518.656200,661.245200,518.597900,661.985200,518.556900C662.679954,518.567030,663.370324,518.445278,664.019700,518.198100C664.539000,517.930600,664.670600,517.312100,663.902100,516.653300C662.559659,515.744445,660.920908,515.382329,659.320500,515.640900C657.753365,515.701714,656.282039,516.411260,655.258700,517.599700C654.746000,518.398600,655.083400,518.965400,655.674700,519.111800Z"
                                fill="rgb(247,169,180)"
                                stroke="none"
                                stroke-width="1"
                            />
                            <path
                                id="landingsvg-path40"
                                d="M627.543800,523.393100C628.244606,523.465769,628.952866,523.398742,629.627600,523.195900C630.349900,523.034300,631.080200,522.889000,631.720300,522.784100C632.360400,522.679200,633.103000,522.580900,633.843500,522.501500C634.541380,522.479220,635.227596,522.316407,635.861100,522.022800C636.362500,521.712800,636.447900,521.048100,635.625700,520.383500C634.240735,519.487901,632.556858,519.178793,630.944100,519.524100C629.362783,519.671775,627.925441,520.504515,627.010800,521.802900C626.556300,522.678100,626.938300,523.265800,627.543800,523.393100Z"
                                fill="rgb(247,169,180)"
                                stroke="none"
                                stroke-width="1"
                            />
                            <path
                                id="landingsvg-path41"
                                d="M643.750000,540.452100C643.408713,540.451260,643.124536,540.189991,643.095081,539.849976C643.065627,539.509962,643.300641,539.203717,643.636700,539.144200L647.346700,538.488800C647.839110,538.402530,648.260170,538.085112,648.478652,537.635473C648.697135,537.185834,648.686477,536.658642,648.450000,536.218200C645.251100,532.993700,644.918900,525.401400,644.906200,525.078200C644.892342,524.714386,645.175710,524.408065,645.539500,524.393600C645.716650,524.377185,645.892434,524.436787,646.023068,524.557560C646.153702,524.678333,646.226889,524.848909,646.224400,525.026800C646.226800,525.101400,646.552600,532.523700,649.438600,535.341600L649.543000,535.472900C650.030891,536.284975,650.087548,537.285238,649.694479,538.147212C649.301410,539.009186,648.509043,539.622286,647.576000,539.786400L643.866000,540.441800C643.827762,540.449009,643.788910,540.452458,643.750000,540.452100Z"
                                fill="rgb(36,55,98)"
                                stroke="none"
                                stroke-width="1"
                            />
                            <path
                                id="landingsvg-path42"
                                d="M641.846800,558.661500C641.708148,558.667012,641.577106,558.598060,641.503127,558.480663C641.429148,558.363267,641.423494,558.215299,641.488300,558.092600C642.237671,556.668945,643.689377,555.752970,645.296958,555.689471C646.904540,555.625972,648.423971,556.424588,649.283300,557.784700C649.394354,557.965692,649.339560,558.202314,649.160253,558.316068C648.980946,558.429823,648.743529,558.378582,648.627100,558.201000C647.916231,557.074941,646.658745,556.413515,645.328101,556.465757C643.997457,556.517998,642.795698,557.275975,642.175300,558.454300C642.110814,558.577218,641.985507,558.656254,641.846800,558.661500Z"
                                opacity="0.46"
                                fill="rgb(239,146,199)"
                                stroke="none"
                                stroke-width="1"
                            />
                            <path
                                id="landingsvg-path43"
                                d="M641.667300,530.820600C641.150620,530.819678,640.721830,530.420965,640.683401,529.905715C640.644972,529.390465,641.009873,528.932556,641.520700,528.855000L649.577500,527.637300C649.928286,527.580666,650.282471,527.716721,650.505129,527.993636C650.727787,528.270551,650.784633,528.645686,650.654012,528.976135C650.523392,529.306584,650.225416,529.541465,649.873600,529.591300L641.816800,530.809000C641.767342,530.816734,641.717359,530.820612,641.667300,530.820600Z"
                                fill="rgb(255,255,255)"
                                stroke="none"
                                stroke-width="1"
                            />
                            <path
                                id="landingsvg-path44"
                                d="M658.315500,539.577900C653.526271,539.568196,649.512773,535.953596,649.003600,531.191500L648.375300,525.240400C648.107070,522.699284,649.949504,520.421817,652.490600,520.153400L664.643700,518.869700C667.184948,518.601585,669.462477,520.444095,669.731000,522.985300L670.336000,528.713400C670.886177,533.980999,667.068890,538.700024,661.802600,539.262600L659.308100,539.526500C658.978349,539.560839,658.647034,539.577995,658.315500,539.577900ZM665.135500,520.821400C665.040892,520.821361,664.946353,520.826469,664.852300,520.836700L652.699100,522.120000C651.244280,522.273377,650.189170,523.576954,650.342300,525.031800L650.970500,530.983000C651.175708,532.933487,652.147687,534.722455,653.672429,535.956015C655.197171,537.189576,657.149659,537.766585,659.100000,537.560000L661.594400,537.296100C665.775107,536.850130,668.805897,533.104207,668.369400,528.922500L667.764400,523.194300C667.623453,521.847838,666.489616,520.824512,665.135800,520.821900Z"
                                fill="rgb(255,255,255)"
                                stroke="none"
                                stroke-width="1"
                            />
                            <path
                                id="landingsvg-path45"
                                d="M630.627800,542.501300C625.840615,542.489986,621.830739,538.874126,621.326100,534.113600L620.697900,528.162400C620.433048,525.622212,622.273904,523.346806,624.813400,523.075400L636.966200,521.791800C639.504491,521.533528,641.775909,523.371049,642.053500,525.907300L642.658500,531.637300C643.213829,536.906317,639.394133,541.628485,634.125400,542.186500L634.124000,542.186500L631.629300,542.449000C631.296593,542.483710,630.962312,542.501167,630.627800,542.501300ZM634.021200,541.202400L634.021200,541.202400ZM637.452900,523.743500C637.359624,523.743500,637.266418,523.748607,637.173700,523.758800L625.022000,525.042100C623.567902,525.196898,622.513451,526.499439,622.664800,527.953900L623.293100,533.905100C623.498895,535.855204,624.470978,537.643673,625.995481,538.877021C627.519984,540.110370,629.472013,540.687559,631.422100,540.481600L633.918100,540.219000C638.098360,539.772477,641.128418,536.026585,640.691600,531.845300L640.086600,526.115900C639.943035,524.768730,638.807696,523.746032,637.452900,523.743500Z"
                                fill="rgb(255,255,255)"
                                stroke="none"
                                stroke-width="1"
                            />
                        </g>
                        <path
                            id="landingsvg-path46"
                            d="M645.443300,553.117400L648.797700,552.763100C650.425100,552.591400,651.648300,551.543100,651.529700,550.420700L650.771000,543.235000L632.298900,545.405700C633.323400,555.109100,638.708600,553.828400,645.443300,553.117400Z"
                            fill="rgb(255,255,255)"
                            stroke="none"
                            stroke-width="1"
                        />
                    </g>
                </g>
                <g id="landingsvg-g13">
                    <path
                        id="landingsvg-path47"
                        d="M661.052300,486.465700L628.721500,486.465700C614.242947,486.481958,602.509847,498.215147,602.493700,512.693700L602.493700,521.560000C602.372400,521.574300,602.254300,521.561400,602.132500,521.580900L602.132500,521.580900C597.442772,522.346129,594.251327,526.754990,594.989200,531.449100L596.599200,541.499100C597.364429,546.188828,601.773290,549.380273,606.467400,548.642400C607.660631,548.447796,608.798641,548.000958,609.805500,547.331700L616.733200,556.367600C618.287294,558.385833,620.688061,559.571059,623.235300,559.577600L632.925300,559.577600C633.471289,559.577600,633.913900,559.134989,633.913900,558.589000C633.913900,558.043011,633.471289,557.600400,632.925300,557.600400L623.235300,557.600400C621.302956,557.596129,619.481650,556.696721,618.303600,555.165000L611.312900,546.046800C613.173077,544.114618,614.023144,541.423984,613.610700,538.773800L612.000700,528.723800C611.413388,525.164409,608.672012,522.347064,605.130000,521.662700L605.130000,512.692700C605.144219,499.669336,615.698136,489.115329,628.721500,489.101000L661.052300,489.101000C661.775815,489.094698,662.359019,488.506392,662.359019,487.782850C662.359019,487.059308,661.775815,486.471002,661.052300,486.464700Z"
                        fill="rgb(36,55,98)"
                        stroke="none"
                        stroke-width="1"
                    />
                    <g id="landingsvg-g14">
                        <path
                            id="landingsvg-path48"
                            d="M636.533100,560.680000L632.643800,560.680000C631.494869,560.676649,630.564340,559.746031,630.561100,558.597100L630.561100,558.597100C630.564450,557.448214,631.494915,556.517660,632.643800,556.514200L636.533100,556.514200C637.682041,556.517605,638.612595,557.448159,638.616000,558.597100L638.616000,558.597100C638.612650,559.746063,637.682063,560.676650,636.533100,560.680000Z"
                            fill="rgb(247,169,180)"
                            stroke="none"
                            stroke-width="1"
                        />
                        <path
                            id="landingsvg-path49"
                            d="M636.532600,561.668500L632.643800,561.668500C630.947513,561.668500,629.572400,560.293387,629.572400,558.597100C629.572400,556.900813,630.947513,555.525700,632.643800,555.525700L636.532600,555.525700C638.228887,555.525700,639.604000,556.900813,639.604000,558.597100C639.604000,560.293387,638.228887,561.668500,636.532600,561.668500ZM632.643800,557.502900C632.039490,557.502900,631.549600,557.992790,631.549600,558.597100C631.549600,559.201410,632.039490,559.691300,632.643800,559.691300L636.532600,559.691300C637.136910,559.691300,637.626800,559.201410,637.626800,558.597100C637.626800,557.992790,637.136910,557.502900,636.532600,557.502900Z"
                            fill="rgb(36,55,98)"
                            stroke="none"
                            stroke-width="1"
                        />
                    </g>
                    <g id="landingsvg-g15">
                        <path
                            id="landingsvg-path50"
                            d="M605.124500,540.156300L605.124500,540.156300C603.106684,540.473542,601.211431,539.101728,600.882400,537.085800L600.495100,534.667500C600.177916,532.649697,601.549703,530.754481,603.565600,530.425400L603.565600,530.425400C605.583423,530.108294,607.478561,531.480256,607.807400,533.496200L608.195000,535.914500C608.512118,537.932224,607.140323,539.827316,605.124500,540.156300Z"
                            fill="rgb(36,55,98)"
                            stroke="none"
                            stroke-width="1"
                        />
                        <path
                            id="landingsvg-path51"
                            d="M604.535300,540.862500C602.394927,540.857216,600.573119,539.303012,600.230700,537.190200L599.843200,534.771400C599.473486,532.397839,601.092064,530.171963,603.464012,529.792041C605.835960,529.412120,608.068779,531.021108,608.458900,533.391400L608.846100,535.810200C609.220882,538.187408,607.604409,540.420662,605.229100,540.807300L605.229100,540.807300C604.999667,540.844099,604.767666,540.862558,604.535300,540.862500ZM604.153000,531.038400C603.262383,531.040535,602.417149,531.431669,601.839063,532.109178C601.260976,532.786688,601.007742,533.682946,601.145800,534.562800L601.533300,536.981700C601.660828,537.778878,602.099999,538.492673,602.754090,538.965878C603.408181,539.439082,604.223543,539.632884,605.020600,539.504600L605.020600,539.504600C606.679160,539.237425,607.808057,537.677579,607.543500,536.018600L607.156000,533.600000C606.913990,532.127886,605.644859,531.045385,604.153000,531.038600Z"
                            fill="rgb(236,241,247)"
                            stroke="none"
                            stroke-width="1"
                        />
                    </g>
                </g>
            </g>
        </g>
    </g>
    <g id="landingsvg-male_to" transform="translate(1193.748871,502.707367)">
        <g id="landingsvg-male" transform="translate(-1193.748871,-502.707367)">
            <path
                id="landingsvg-path52"
                d="M1386.647500,425.701300L1000.850500,425.701300C996.778737,425.701273,992.873733,427.318749,989.994543,430.197902C987.115353,433.077054,985.497827,436.982037,985.497800,441.053800L985.497800,595.350900C985.497827,599.422663,987.115353,603.327646,989.994543,606.206798C992.873733,609.085951,996.778737,610.703427,1000.850500,610.703400L1040.443800,610.703400L1045.716400,654.191300L1089.204000,610.703400L1386.647500,610.703400C1395.126429,610.703345,1401.999945,603.829829,1402,595.350900L1402,441.053800C1401.999945,432.574871,1395.126429,425.701355,1386.647500,425.701300Z"
                fill="rgb(239,112,134)"
                stroke="none"
                stroke-width="1"
            />
            <path
                id="landingsvg-path53"
                d="M1277.492000,600.093100C1244.770672,600.093424,1215.271103,580.382857,1202.748903,550.152412C1190.226703,519.921966,1197.147907,485.125014,1220.285165,461.987326C1243.422424,438.849638,1278.219248,431.927790,1308.449926,444.449429C1338.680604,456.971069,1358.391717,486.470272,1358.392000,519.191600C1358.341742,563.850845,1322.151244,600.042014,1277.492000,600.093100ZM1277.492000,440.927800C1245.836846,440.927557,1217.298541,459.996012,1205.184536,489.241518C1193.070530,518.487024,1199.766489,552.150135,1222.150077,574.533694C1244.533665,596.917254,1278.196783,603.613169,1307.442274,591.499126C1336.687764,579.385083,1355.756183,550.846754,1355.755900,519.191600C1355.707238,475.987830,1320.695770,440.976407,1277.492000,440.927800Z"
                fill="rgb(236,241,247)"
                stroke="none"
                stroke-width="1"
            />
            <path
                id="landingsvg-path54"
                d="M1167.183200,481.346200L1030.949200,481.346200C1030.475535,481.350326,1030.036074,481.099994,1029.798042,480.690462C1029.560011,480.280929,1029.560011,479.775171,1029.798042,479.365638C1030.036074,478.956106,1030.475535,478.705774,1030.949200,478.709900L1167.183200,478.709900C1167.906715,478.716202,1168.489919,479.304508,1168.489919,480.028050C1168.489919,480.751592,1167.906715,481.339898,1167.183200,481.346200Z"
                fill="rgb(255,255,255)"
                stroke="none"
                stroke-width="1"
            />
            <path
                id="landingsvg-path55"
                d="M1167.183200,542.066300L1030.949200,542.066300C1030.475535,542.070426,1030.036074,541.820094,1029.798042,541.410562C1029.560011,541.001029,1029.560011,540.495271,1029.798042,540.085738C1030.036074,539.676206,1030.475535,539.425874,1030.949200,539.430000L1167.183200,539.430000C1167.906715,539.436302,1168.489919,540.024608,1168.489919,540.748150C1168.489919,541.471692,1167.906715,542.059998,1167.183200,542.066300Z"
                fill="rgb(255,255,255)"
                stroke="none"
                stroke-width="1"
            />
            <path
                id="landingsvg-path56"
                d="M1167.183200,512.268700L1099.065400,512.268700C1098.591735,512.272826,1098.152274,512.022494,1097.914242,511.612962C1097.676211,511.203429,1097.676211,510.697671,1097.914242,510.288138C1098.152274,509.878606,1098.591735,509.628274,1099.065400,509.632400L1167.183200,509.632400C1167.906715,509.638702,1168.489919,510.227008,1168.489919,510.950550C1168.489919,511.674092,1167.906715,512.262398,1167.183200,512.268700Z"
                fill="rgb(255,255,255)"
                stroke="none"
                stroke-width="1"
            />
            <path
                id="landingsvg-path57"
                d="M1167.183200,566.627100L1099.065400,566.627100C1098.591735,566.631226,1098.152274,566.380894,1097.914242,565.971362C1097.676211,565.561829,1097.676211,565.056071,1097.914242,564.646538C1098.152274,564.237006,1098.591735,563.986674,1099.065400,563.990800L1167.183200,563.990800C1167.906715,563.997102,1168.489919,564.585408,1168.489919,565.308950C1168.489919,566.032492,1167.906715,566.620798,1167.183200,566.627100Z"
                fill="rgb(255,255,255)"
                stroke="none"
                stroke-width="1"
            />
            <path
                id="landingsvg-path58"
                d="M1078.784800,512.268700L1032.689400,512.268700C1032.215735,512.272826,1031.776274,512.022494,1031.538242,511.612962C1031.300211,511.203429,1031.300211,510.697671,1031.538242,510.288138C1031.776274,509.878606,1032.215735,509.628274,1032.689400,509.632400L1078.784800,509.632400C1079.258465,509.628274,1079.697926,509.878606,1079.935958,510.288138C1080.173989,510.697671,1080.173989,511.203429,1079.935958,511.612962C1079.697926,512.022494,1079.258465,512.272826,1078.784800,512.268700Z"
                fill="rgb(255,255,255)"
                stroke="none"
                stroke-width="1"
            />
            <g id="landingsvg-g16">
                <path
                    id="landingsvg-path59"
                    d="M1349.477000,504.973500L1349.483800,504.964800L1330.471600,428.424800L1325.359600,430.163200L1304.856300,437.136500L1301.062400,438.426500L1307.722400,468.708100C1306.337300,468.583400,1304.942400,468.502700,1303.534900,468.502700L1243.760300,468.677700C1224.344400,468.734400,1208.020300,484.135400,1205.720300,504.567700L1205.001100,510.956200C1201.372000,543.193400,1219.352900,574.673200,1249.722000,586.080200Q1251.631200,586.797600,1253.604800,587.424200C1274.814557,594.044526,1297.865323,590.961054,1316.589318,578.998841C1335.313313,567.036629,1347.799389,547.416651,1350.706600,525.388700C1351.607653,518.567675,1351.190226,511.637068,1349.477000,504.973500Z"
                    fill="rgb(36,55,98)"
                    stroke="none"
                    stroke-width="1"
                />
                <g id="landingsvg-g17">
                    <path
                        id="landingsvg-path60"
                        d="M1294.157900,406.707600L1292.045500,377.431400C1291.981444,376.605288,1291.865818,375.783987,1291.699300,374.972300C1293.238242,367.078388,1289.523127,359.090601,1282.494577,355.181424C1275.466027,351.272247,1266.720220,352.329453,1260.825600,357.800800C1255.792612,352.131523,1247.938009,349.879193,1240.665504,352.019834C1233.392999,354.160474,1228.011140,360.308918,1226.852100,367.800800C1220.988235,368.975725,1216.566234,373.821863,1215.931793,379.768530C1215.297353,385.715197,1218.597403,391.385188,1224.081400,393.770800L1225.372900,411.671300C1226.217600,423.373300,1237.112100,432.122600,1249.707500,431.213900L1272.880900,429.541700C1285.476300,428.632300,1295.002300,418.410000,1294.157900,406.707600Z"
                        fill="rgb(36,55,98)"
                        stroke="none"
                        stroke-width="1"
                    />
                    <g id="landingsvg-g18">
                        <path
                            id="landingsvg-path61"
                            d="M1290.348500,416.155300C1295.730083,415.692257,1299.720659,410.959398,1299.267783,405.576950C1298.814907,400.194501,1294.089594,396.194992,1288.706300,396.637700L1287.623100,396.728600L1286.829800,387.299400C1286.771748,386.620745,1286.664803,385.947162,1286.509800,385.283900C1283.839088,390.017918,1278.628320,392.732140,1273.218317,392.207263C1267.808314,391.682386,1263.216483,388.017119,1261.505600,382.858000C1257.956375,387.332144,1252.678501,390.094073,1246.979265,390.459679C1241.280029,390.825285,1235.692513,388.760371,1231.600700,384.776400C1230.554360,387.052457,1230.105955,389.557817,1230.297900,392.055500L1231.396900,405.119700C1231.273126,406.313116,1231.243268,407.514409,1231.307600,408.712500L1232.899100,434.871900C1233.437797,443.722458,1239.045750,451.463262,1247.287800,454.733000L1250.006100,469.364200C1252.601000,483.329800,1264.777500,492.779600,1277.203400,490.471000C1289.629300,488.162400,1297.599200,474.969500,1295.004500,461.004000L1289.740900,426.836200L1289.097400,416.260500Z"
                            fill="rgb(249,217,235)"
                            stroke="none"
                            stroke-width="1"
                        />
                        <path
                            id="landingsvg-path62"
                            d="M1268.563400,455.631500L1257.133400,456.326900C1255.022235,456.450522,1252.904128,456.280534,1250.839700,455.821800C1254.840800,460.820500,1263.880400,462.938000,1273.374500,460.569800L1273.374500,460.569800C1284.966900,457.678100,1292.834500,449.201100,1290.947100,441.635400L1289.743600,436.497800C1288.013898,447.036987,1279.223570,454.977965,1268.563400,455.631500Z"
                            opacity="0.46"
                            fill="rgb(239,146,199)"
                            stroke="none"
                            stroke-width="1"
                        />
                    </g>
                    <path
                        id="landingsvg-path63"
                        d="M1294.067500,406.337400C1293.828400,403.495500,1291.285100,401.296800,1287.954200,400.662500L1288.127900,402.729600C1288.273298,403.559402,1288.373014,404.396562,1288.426600,405.237300L1288.898000,412.984100C1292.125300,411.818300,1294.309000,409.206000,1294.067500,406.337400Z"
                        opacity="0.46"
                        fill="rgb(239,146,199)"
                        stroke="none"
                        stroke-width="1"
                    />
                    <g id="landingsvg-g19">
                        <path
                            id="landingsvg-path64"
                            d="M1241.922300,411.170000L1241.922300,411.170000C1241.555871,411.200893,1241.192184,411.084912,1240.911290,410.847586C1240.630397,410.610261,1240.455321,410.271043,1240.424600,409.904600L1240.192100,407.141500C1240.161232,406.775045,1240.277214,406.411339,1240.514527,406.130404C1240.751840,405.849469,1241.091042,405.674323,1241.457500,405.643500L1241.457500,405.643500C1242.220477,405.579452,1242.890959,406.145939,1242.955200,406.908900L1243.187700,409.672000C1243.218622,410.038466,1243.102660,410.402202,1242.865336,410.683149C1242.628013,410.964097,1242.288779,411.139229,1241.922300,411.170000Z"
                            fill="rgb(36,55,98)"
                            stroke="none"
                            stroke-width="1"
                        />
                        <path
                            id="landingsvg-path65"
                            d="M1266.342100,409.686000L1266.342100,409.686000C1265.579029,409.750166,1264.908391,409.183661,1264.844100,408.420600L1264.611600,405.657500C1264.547493,404.894466,1265.113982,404.223892,1265.877000,404.159600L1265.877000,404.159600C1266.640053,404.095491,1267.310656,404.661967,1267.375000,405.425000L1267.607500,408.188100C1267.671550,408.951116,1267.105091,409.621655,1266.342100,409.686000Z"
                            fill="rgb(36,55,98)"
                            stroke="none"
                            stroke-width="1"
                        />
                        <path
                            id="landingsvg-path66"
                            d="M1234.968000,400.834700C1235.316253,400.115146,1235.855250,399.504931,1236.526300,399.070500C1237.187200,398.540500,1237.831800,397.989000,1238.367800,397.486300C1238.905800,396.982800,1239.495800,396.379100,1240.061600,395.760300C1240.547272,395.115645,1241.196789,394.612882,1241.942600,394.304300C1242.657300,394.109500,1243.570500,394.611900,1243.916400,395.958000C1244.257422,397.860752,1243.566734,399.801971,1242.100500,401.061700C1240.671591,402.456048,1238.657278,403.074525,1236.692100,402.722300C1235.275100,402.378200,1234.754200,401.509000,1234.968000,400.834700Z"
                            fill="rgb(36,55,98)"
                            stroke="none"
                            stroke-width="1"
                        />
                        <path
                            id="landingsvg-path67"
                            d="M1272.828100,400.432100C1271.980269,400.671504,1271.081355,400.661087,1270.239300,400.402100C1269.318700,400.224400,1268.392300,400.077300,1267.586100,399.988200C1266.778100,399.898200,1265.850100,399.838200,1264.927700,399.811100C1264.034209,399.871453,1263.141510,399.682500,1262.349100,399.265300C1261.659700,398.786900,1261.388400,397.606600,1262.222600,396.284700C1263.482005,394.559590,1265.599707,393.682701,1267.710000,394.012500C1269.953300,394.245582,1271.948941,395.539828,1273.076700,397.493000C1273.851300,398.994500,1273.533900,400.108900,1272.828100,400.432100Z"
                            fill="rgb(36,55,98)"
                            stroke="none"
                            stroke-width="1"
                        />
                        <path
                            id="landingsvg-path68"
                            d="M1252.784600,423.535300C1251.240971,423.534769,1249.787417,422.808495,1248.860132,421.574422C1247.932848,420.340350,1247.639752,418.742105,1248.068800,417.259300L1251.918800,403.960000C1251.992503,403.695008,1252.202873,403.490033,1252.469691,403.423240C1252.736508,403.356447,1253.018639,403.438131,1253.208498,403.637145C1253.398357,403.836159,1253.466675,404.121821,1253.387400,404.385200L1249.537400,417.684600C1249.227757,418.753793,1249.464109,419.906890,1250.169420,420.768047C1250.874730,421.629203,1251.958657,422.088114,1253.067900,421.995200L1260.084400,421.405200C1260.356315,421.382264,1260.619811,421.506134,1260.775632,421.730151C1260.931453,421.954168,1260.955926,422.244298,1260.839832,422.491251C1260.723738,422.738205,1260.484715,422.904464,1260.212800,422.927400L1253.196300,423.518000Q1252.989200,423.535400,1252.784600,423.535300Z"
                            fill="rgb(36,55,98)"
                            stroke="none"
                            stroke-width="1"
                        />
                        <path
                            id="landingsvg-path69"
                            d="M1267.911400,436.461600L1264.556800,438.011600C1262.929100,438.763800,1261.189400,438.463800,1260.671100,437.341600L1257.349600,430.154800L1275.947400,421.824800C1280.432300,431.530000,1274.646900,433.349000,1267.911400,436.461600Z"
                            fill="rgb(255,255,255)"
                            stroke="none"
                            stroke-width="1"
                        />
                    </g>
                </g>
                <g id="landingsvg-g20">
                    <polygon id="landingsvg-polygon2" points="1248.281000,467.787000 1236.222000,485.876000 1262.853000,507.985000 1272.903000,487.886000 1248.281000,467.787000" fill="rgb(255,255,255)" stroke="none" stroke-width="1" />
                    <polygon id="landingsvg-polygon3" points="1296.520000,467.787000 1308.579000,485.876000 1281.947000,507.985000 1271.898000,487.886000 1296.520000,467.787000" fill="rgb(255,255,255)" stroke="none" stroke-width="1" />
                </g>
                <g id="landingsvg-g21">
                    <path
                        id="landingsvg-path70"
                        d="M1290.160000,390.221200L1296.070900,390.221200C1296.525762,390.221200,1296.894500,390.589938,1296.894500,391.044800L1296.894500,435.898500C1296.894500,436.353362,1296.525762,436.722100,1296.070900,436.722100L1290.160000,436.722100C1289.705138,436.722100,1289.336400,436.353362,1289.336400,435.898500L1289.336400,391.044800C1289.336400,390.589994,1289.705093,390.221300,1290.159900,390.221300Z"
                        transform="matrix(0.99740000000000 0.07240000000000 -0.07240000000000 0.99740000000000 33.32330000000000 -92.52249999999999)"
                        fill="rgb(76,101,186)"
                        stroke="none"
                        stroke-width="1"
                    />
                    <g id="landingsvg-g22">
                        <path
                            id="landingsvg-path71"
                            d="M1302.701100,399.521800C1302.701100,399.521800,1293.487000,395.930000,1292.550000,404C1291.958700,409.097900,1292.890600,409.858200,1293.657500,409.728500C1292.717500,410.444700,1291.437500,412.279900,1292.362800,416.973800C1293.400500,422.236900,1294.725000,422.183800,1295.311800,421.841700C1294.129100,422.867500,1290.051300,426.961700,1294.496100,431.392300C1296.202100,433.092300,1300.234800,435.147900,1304.856100,437.136000L1325.359400,430.162700C1323.873000,417.091200,1318.845000,399.966500,1302.701100,399.521800Z"
                            fill="rgb(249,217,235)"
                            stroke="none"
                            stroke-width="1"
                        />
                        <g id="landingsvg-g23">
                            <path
                                id="landingsvg-path72"
                                d="M1295.947400,410.611700C1294.996399,410.619087,1294.047245,410.526749,1293.115500,410.336200C1292.760043,410.259307,1292.534161,409.908890,1292.610900,409.553400C1292.691433,409.200249,1293.038471,408.975392,1293.393700,409.046200C1295.891387,409.432108,1298.442110,409.292774,1300.882900,408.637100C1301.228041,408.552278,1301.578371,408.755994,1301.675362,409.097915C1301.772354,409.439836,1301.581172,409.797161,1301.242900,409.906200C1299.513710,410.359501,1297.734953,410.596478,1295.947400,410.611700Z"
                                fill="rgb(36,55,98)"
                                stroke="none"
                                stroke-width="1"
                            />
                            <path
                                id="landingsvg-path73"
                                d="M1295.947400,422.825100C1294.996397,422.832535,1294.047237,422.740196,1293.115500,422.549600C1292.760056,422.472755,1292.534165,422.122367,1292.610900,421.766900C1292.692360,421.414398,1293.038685,421.190004,1293.393700,421.259700C1295.891415,421.645152,1298.442050,421.505788,1300.882900,420.850500C1301.228041,420.765678,1301.578371,420.969394,1301.675362,421.311315C1301.772354,421.653236,1301.581172,422.010561,1301.242900,422.119600C1299.513721,422.572957,1297.734957,422.809935,1295.947400,422.825100Z"
                                fill="rgb(36,55,98)"
                                stroke="none"
                                stroke-width="1"
                            />
                        </g>
                    </g>
                </g>
            </g>
        </g>
     
    </g>
    <g id="landingsvg-question_to" transform="translate(1162.927063,364.303711)">
        <g id="landingsvg-question" transform="translate(-1162.927063,-364.303711)">
            <path
                id="landingsvg-path74"
                d="M1200.573500,313.382800L1123.714300,313.382800C1122.275162,313.476759,1121.181254,314.713991,1121.264300,316.153800L1121.264300,379.925600C1121.117437,382.471172,1123.051594,384.658547,1125.596000,384.824400L1155.251200,384.824400C1155.603968,384.829138,1155.936217,384.991063,1156.157300,385.266000L1180.805100,414.779900C1181.598400,415.729900,1182.955100,415.057000,1182.955100,413.713500L1182.955100,386.332400C1182.892872,385.570226,1183.453438,384.899006,1184.214500,384.824400L1200.573800,384.824400C1202.795900,384.824400,1204.597600,382.667100,1204.597600,380.006300L1204.597600,318.200900C1204.597300,315.540000,1202.795600,313.382800,1200.573500,313.382800Z"
                fill="rgb(197,217,255)"
                stroke="none"
                stroke-width="1"
                  
            />
            <g id="landingsvg-g24">
                <path
                    id="landingsvg-path75"
                    d="M1153.184700,336.391100C1152.153115,336.379711,1151.187686,335.881123,1150.581226,335.046555C1149.974765,334.211988,1149.798726,333.139769,1150.106500,332.155100C1152.450668,325.423694,1159.576596,321.626268,1166.471400,323.434200C1169.633890,324.239773,1172.389477,326.180683,1174.213100,328.887100C1178.128842,334.594931,1177.151344,342.330289,1171.938800,346.884600L1166.029500,352.046000L1165.980500,354.149500C1165.960759,355.000223,1165.603855,355.808255,1164.988313,356.395816C1164.372772,356.983377,1163.549021,357.302330,1162.698300,357.282500L1161.336900,357.250800C1160.742355,357.237037,1160.177637,356.987620,1159.767012,356.557434C1159.356386,356.127248,1159.133500,355.551542,1159.147400,354.957000L1159.226800,351.541100C1159.266135,349.851067,1160.013607,348.255288,1161.286800,347.143200L1167.457900,341.753200C1169.326117,340.128841,1170.167778,337.619892,1169.657100,335.197500C1169.174887,332.819823,1167.447113,330.887428,1165.138000,330.143200C1161.710250,329.015728,1157.996283,330.745312,1156.653300,334.094500C1156.090799,335.509671,1154.707473,336.425706,1153.185000,336.391200Z"
                    fill="rgb(255,255,255)"
                    stroke="none"
                    stroke-width="1"
                />
                <path
                    id="landingsvg-path76"
                    d="M1162.342100,364.088600L1162.342100,364.088600C1163.245288,364.109599,1164.103139,364.488539,1164.726927,365.142051C1165.350714,365.795563,1165.689338,366.670113,1165.668300,367.573300L1165.668300,367.573300C1165.647353,368.476408,1165.268476,369.334199,1164.615030,369.957938C1163.961584,370.581678,1163.087105,370.920264,1162.184000,370.899200L1162.184000,370.899200C1161.280822,370.878305,1160.422944,370.499443,1159.799127,369.845976C1159.175310,369.192508,1158.836663,368.317975,1158.857700,367.414800L1158.857700,367.414800C1158.878674,366.511657,1159.257563,365.653836,1159.911016,365.030052C1160.564469,364.406267,1161.438957,364.067616,1162.342100,364.088600Z"
                    fill="rgb(255,255,255)"
                    stroke="none"
                    stroke-width="1"
                />
            </g>
        </g>
    </g>
    <g id="landingsvg-g25_to" transform="translate(687.878387,418.119431)">
        <g id="landingsvg-g25" transform="translate(-687.878387,-418.119431)">
            <path
                id="landingsvg-path77"
                d="M650.232100,367.198600L727.091300,367.198600C728.530381,367.292507,729.624287,368.529648,729.541300,369.969400L729.541300,433.741500C729.687942,436.286793,727.754096,438.473883,725.210000,438.640000L695.554600,438.640000C695.201785,438.644731,694.869508,438.806744,694.648500,439.081800L670.000700,468.595500C669.207100,469.545500,667.850700,468.872800,667.850700,467.529100L667.850700,440.148200C667.912863,439.385792,667.352006,438.714455,666.590700,438.640000L650.231700,438.640000C648.009300,438.640000,646.207900,436.483000,646.207900,433.822200L646.207900,372.016700C646.208300,369.355700,648.010000,367.198600,650.232100,367.198600Z"
                fill="rgb(239,112,134)"
                stroke="none"
                stroke-width="1"
            />
            <g id="landingsvg-g26">
                <path
                    id="landingsvg-path78"
                    d="M694.540700,413.579100L694.626300,413.579100C695.611647,413.579045,696.410490,414.377753,696.410600,415.363100L696.410600,419.138800C696.410547,419.611973,696.222529,420.065744,695.887908,420.400291C695.553287,420.734837,695.099473,420.922753,694.626300,420.922700L681.123500,420.922700C680.650327,420.922753,680.196513,420.734837,679.861892,420.400291C679.527271,420.065744,679.339253,419.611973,679.339200,419.138800L679.339200,415.386000C679.339310,414.400653,680.138153,413.601945,681.123500,413.602000L681.126400,413.602000C681.599573,413.601973,682.053355,413.413981,682.387920,413.079378C682.722485,412.744776,682.910427,412.290973,682.910400,411.817800L682.910400,400.667800C682.910455,399.682453,682.111747,398.883610,681.126400,398.883500L681.126400,398.883500C680.141053,398.883555,679.342210,398.084847,679.342100,397.099500L679.342100,393.319500C679.342073,392.846266,679.530053,392.392407,679.864680,392.057780C680.199307,391.723153,680.653166,391.535173,681.126400,391.535200L690.972200,391.535200C691.445417,391.535200,691.899250,391.723191,692.233855,392.057815C692.568461,392.392439,692.756427,392.846283,692.756400,393.319500L692.756400,411.794400C692.756267,412.267703,692.944200,412.721665,693.278839,413.056379C693.613477,413.391092,694.067397,413.579127,694.540700,413.579100Z"
                    fill="rgb(255,255,255)"
                    stroke="none"
                    stroke-width="1"
                />
                <path
                    id="landingsvg-path79"
                    d="M687.632000,379.596900L687.632000,379.596900C688.655736,379.596900,689.637542,380.003577,690.361432,380.727468C691.085323,381.451358,691.492000,382.433164,691.492000,383.456900L691.492000,383.456900C691.492000,384.480636,691.085323,385.462442,690.361432,386.186332C689.637542,386.910223,688.655736,387.316900,687.632000,387.316900L687.632000,387.316900C686.608264,387.316900,685.626458,386.910223,684.902568,386.186332C684.178677,385.462442,683.772000,384.480636,683.772000,383.456900L683.772000,383.456900C683.772000,382.433164,684.178677,381.451358,684.902568,380.727468C685.626458,380.003577,686.608264,379.596900,687.632000,379.596900Z"
                    fill="rgb(255,255,255)"
                    stroke="none"
                    stroke-width="1"
                />
            </g>
        </g>
    </g>
    <g id="landingsvg-box-down">
        <path
            id="landingsvg-path80"
            d="M1147.571200,671.499400L1147.571200,659.986700C1147.571200,656.627500,1151.117300,653.904500,1155.491200,653.904500L1326.911200,653.904500C1331.285600,653.904500,1334.831700,656.627500,1334.831700,659.986700L1334.831700,773.810000C1334.831700,777.169100,1331.285600,779.892200,1326.911200,779.892200L1155.491200,779.892200C1151.116800,779.892200,1147.571200,777.169100,1147.571200,773.810000L1147.571200,755.541200"
            fill="rgb(255,255,255)"
            stroke="none"
            stroke-width="1"
        />
        <g id="landingsvg-g27">
            <path
                id="landingsvg-path81"
                d="M1147.571200,677.881100L1147.571200,659.986700C1147.571200,656.627500,1151.117300,653.904500,1155.491200,653.904500L1326.911200,653.904500C1331.285600,653.904500,1334.831700,656.627500,1334.831700,659.986700L1334.831700,677.100000"
                fill="rgb(197,217,255)"
                stroke="none"
                stroke-width="1"
            />
            <path
                id="landingsvg-path82"
                d="M1148.888800,677.881900L1146.252500,677.881900L1146.252500,659.986700C1146.252500,655.906000,1150.397300,652.587400,1155.491200,652.587400L1326.911200,652.587400C1332.006100,652.587400,1336.151200,655.906000,1336.151200,659.986700L1336.151200,677.099400L1333.514900,677.099400L1333.514900,659.986700C1333.514900,657.360700,1330.551700,655.223700,1326.911300,655.223700L1155.491300,655.223700C1151.851300,655.223700,1148.888900,657.360700,1148.888900,659.986700Z"
                fill="rgb(36,55,98)"
                stroke="none"
                stroke-width="1"
            />
        </g>
        <rect id="landingsvg-rect12" width="186.129000" height="1.977200" rx="0" ry="0" transform="matrix(1 0 0 1 1147.56999999999994 676.11099999999999)" fill="rgb(36,55,98)" stroke="none" stroke-width="1" />
        <path
            id="landingsvg-path83"
            d="M1161.086700,670.796800C1158.733694,670.796082,1156.826722,668.888139,1156.827200,666.535134C1156.827679,664.182128,1158.735428,662.274961,1161.088433,662.275200C1163.441439,662.275439,1165.348800,664.182994,1165.348800,666.536000C1165.346484,668.888722,1163.439423,670.795201,1161.086700,670.796800ZM1161.086700,664.911600C1160.189670,664.912318,1159.463003,665.639969,1159.463500,666.536999C1159.463997,667.434029,1160.191469,668.160875,1161.088500,668.160599C1161.985530,668.160323,1162.712555,667.433030,1162.712500,666.536000C1162.711507,665.638734,1161.983967,664.911820,1161.086700,664.911600Z"
            fill="rgb(255,255,255)"
            stroke="none"
            stroke-width="1"
        />
        <path
            id="landingsvg-path84"
            d="M1172.132800,670.796800C1169.779625,670.796800,1167.872000,668.889175,1167.872000,666.536000C1167.872000,664.182825,1169.779625,662.275200,1172.132800,662.275200C1174.485975,662.275200,1176.393600,664.182825,1176.393600,666.536000C1176.391120,668.888147,1174.484947,670.794320,1172.132800,670.796800ZM1172.132800,664.911600C1171.475742,664.911600,1170.883384,665.307408,1170.631948,665.914454C1170.380512,666.521500,1170.519516,667.220234,1170.984140,667.684830C1171.448765,668.149426,1172.147508,668.288387,1172.754539,668.036914C1173.361569,667.785440,1173.757340,667.193058,1173.757300,666.536000C1173.755813,665.639446,1173.029354,664.913031,1172.132800,664.911600Z"
            fill="rgb(255,255,255)"
            stroke="none"
            stroke-width="1"
        />
        <path
            id="landingsvg-path85"
            d="M1182.968800,670.796800C1180.615794,670.796082,1178.708822,668.888139,1178.709300,666.535134C1178.709779,664.182128,1180.617528,662.274961,1182.970533,662.275200C1185.323539,662.275439,1187.230900,664.182994,1187.230900,666.536000C1187.228419,668.888654,1185.321454,670.795036,1182.968800,670.796800ZM1182.968800,664.911600C1182.071770,664.912318,1181.345103,665.639969,1181.345600,666.536999C1181.346097,667.434029,1182.073569,668.160875,1182.970600,668.160599C1183.867630,668.160323,1184.594655,667.433030,1184.594600,666.536000C1184.593002,665.638985,1183.865816,664.912425,1182.968800,664.911600Z"
            fill="rgb(255,255,255)"
            stroke="none"
            stroke-width="1"
        />
        <path
            id="landingsvg-path86"
            d="M1306.364000,709.754500L1185.912800,709.754500C1185.366811,709.754500,1184.924200,709.311889,1184.924200,708.765900C1184.924200,708.219911,1185.366811,707.777300,1185.912800,707.777300L1306.364000,707.777300C1306.909989,707.777300,1307.352600,708.219911,1307.352600,708.765900C1307.352600,709.311889,1306.909989,709.754500,1306.364000,709.754500Z"
            fill="rgb(36,55,98)"
            stroke="none"
            stroke-width="1"
        />
        <path
            id="landingsvg-path87"
            d="M1246.137200,739.103900L1185.912800,739.103900C1185.366811,739.103900,1184.924200,738.661289,1184.924200,738.115300C1184.924200,737.569311,1185.366811,737.126700,1185.912800,737.126700L1246.137200,737.126700C1246.683189,737.126700,1247.125800,737.569311,1247.125800,738.115300C1247.125800,738.661289,1246.683189,739.103900,1246.137200,739.103900Z"
            fill="rgb(36,55,98)"
            stroke="none"
            stroke-width="1"
        />
        <path
            id="landingsvg-path88"
            d="M1230.880000,724.660900L1185.912400,724.660900C1185.366411,724.660900,1184.923800,724.218289,1184.923800,723.672300C1184.923800,723.126311,1185.366411,722.683700,1185.912400,722.683700L1230.880000,722.683700C1231.425989,722.683700,1231.868600,723.126311,1231.868600,723.672300C1231.868600,724.218289,1231.425989,724.660900,1230.880000,724.660900Z"
            fill="rgb(36,55,98)"
            stroke="none"
            stroke-width="1"
        />
        <path
            id="landingsvg-path89"
            d="M1306.364000,724.660900L1261.395000,724.660900C1260.849011,724.660900,1260.406400,724.218289,1260.406400,723.672300C1260.406400,723.126311,1260.849011,722.683700,1261.395000,722.683700L1306.364000,722.683700C1306.909989,722.683700,1307.352600,723.126311,1307.352600,723.672300C1307.352600,724.218289,1306.909989,724.660900,1306.364000,724.660900Z"
            fill="rgb(36,55,98)"
            stroke="none"
            stroke-width="1"
        />
    </g>
    <g id="landingsvg-box-up">
        <path
            id="landingsvg-path90"
            d="M809.620700,312.063300L809.620700,302.067300C809.620700,299.150700,812.699600,296.786200,816.497800,296.786200L965.337200,296.786200C969.135300,296.786200,972.214300,299.150700,972.214300,302.067300L972.214300,400.897300C972.214300,403.814200,969.135300,406.178400,965.337200,406.178400L816.497800,406.178400C812.699600,406.178400,809.620700,403.814200,809.620700,400.897300L809.620700,385.034800"
            fill="rgb(255,255,255)"
            stroke="none"
            stroke-width="1"
        />
        <g id="landingsvg-g28">
            <path
                id="landingsvg-path91"
                d="M809.620700,317.604600L809.620700,302.067300C809.620700,299.150700,812.699600,296.786200,816.497800,296.786200L965.337200,296.786200C969.135300,296.786200,972.214300,299.150700,972.214300,302.067300L972.214300,316.926200"
                fill="rgb(141,113,216)"
                stroke="none"
                stroke-width="1"
            />
            <path
                id="landingsvg-path92"
                d="M810.939100,317.604800L808.302800,317.604800L808.302800,302.067500C808.302800,298.428600,811.979100,295.467500,816.497500,295.467500L965.337500,295.467500C969.855600,295.467500,973.532200,298.428300,973.532200,302.067500L973.532200,316.926500L970.895900,316.926500L970.895900,302.067500C970.895900,299.919200,968.350800,298.104100,965.337500,298.104100L816.497500,298.104100C813.483900,298.104100,810.939100,299.919200,810.939100,302.067500Z"
                fill="rgb(36,55,98)"
                stroke="none"
                stroke-width="1"
            />
        </g>
        <rect id="landingsvg-rect13" width="161.611000" height="1.977200" rx="0" ry="0" transform="matrix(1 0 0 1 809.62099999999998 315.93799999999999)" fill="rgb(36,55,98)" stroke="none" stroke-width="1" />
        <path
            id="landingsvg-path93"
            d="M821.356700,311.628100C819.789645,311.628343,818.376773,310.684516,817.776994,309.236785C817.177215,307.789054,817.508665,306.122573,818.616768,305.014527C819.724872,303.906481,821.391370,303.575117,822.839070,304.174971C824.286770,304.774825,825.230524,306.187745,825.230200,307.754800C825.227390,309.892878,823.494778,311.625401,821.356700,311.628100ZM821.356700,306.516300C820.673095,306.515969,820.118650,307.069862,820.118300,307.753467C820.117951,308.437072,820.671829,308.991531,821.355434,308.991900C822.039038,308.992268,822.593513,308.438405,822.593900,307.754800C822.592801,307.071758,822.039740,306.518116,821.356700,306.516300Z"
            fill="rgb(255,255,255)"
            stroke="none"
            stroke-width="1"
        />
        <path
            id="landingsvg-path94"
            d="M830.946800,311.628100C829.379745,311.628343,827.966873,310.684516,827.367094,309.236785C826.767315,307.789054,827.098765,306.122573,828.206868,305.014527C829.314972,303.906481,830.981470,303.575117,832.429170,304.174971C833.876870,304.774825,834.820624,306.187745,834.820300,307.754800C834.817490,309.892878,833.084878,311.625401,830.946800,311.628100ZM830.946800,306.516300C830.263195,306.515969,829.708750,307.069862,829.708400,307.753467C829.708051,308.437072,830.261929,308.991531,830.945534,308.991900C831.629138,308.992268,832.183613,308.438405,832.184000,307.754800C832.182901,307.071758,831.629840,306.518116,830.946800,306.516300Z"
            fill="rgb(255,255,255)"
            stroke="none"
            stroke-width="1"
        />
        <path
            id="landingsvg-path95"
            d="M840.355500,311.628100C838.788536,311.627938,837.375971,310.683855,836.776507,309.236092C836.177043,307.788329,836.508740,306.122012,837.616922,305.014173C838.725104,303.906334,840.391523,303.575154,841.839101,304.175066C843.286678,304.774979,844.230324,306.187836,844.230000,307.754800C844.227134,309.893245,842.493945,311.625896,840.355500,311.628100ZM840.355500,306.516300C839.672025,306.516521,839.118082,307.070659,839.118100,307.754133C839.118119,308.437608,839.672092,308.991716,840.355567,308.991900C841.039042,308.992084,841.593313,308.438275,841.593700,307.754800C841.592435,307.071437,841.038863,306.517731,840.355500,306.516300Z"
            fill="rgb(255,255,255)"
            stroke="none"
            stroke-width="1"
        />
        <path
            id="landingsvg-path96"
            d="M944.858700,345.410900L840.275600,345.410900C839.729611,345.410900,839.287000,344.968289,839.287000,344.422300C839.287000,343.876311,839.729611,343.433700,840.275600,343.433700L944.858700,343.433700C945.404689,343.433700,945.847300,343.876311,945.847300,344.422300C945.847300,344.968289,945.404689,345.410900,944.858700,345.410900Z"
            fill="rgb(36,55,98)"
            stroke="none"
            stroke-width="1"
        />
        <path
            id="landingsvg-path97"
            d="M892.566300,370.892100L840.275600,370.892100C839.729611,370.892100,839.287000,370.449489,839.287000,369.903500C839.287000,369.357511,839.729611,368.914900,840.275600,368.914900L892.566300,368.914900C892.919493,368.914900,893.245856,369.103326,893.422453,369.409200C893.599049,369.715074,893.599049,370.091926,893.422453,370.397800C893.245856,370.703674,892.919493,370.892100,892.566300,370.892100Z"
            fill="rgb(36,55,98)"
            stroke="none"
            stroke-width="1"
        />
        <path
            id="landingsvg-path98"
            d="M879.319200,358.351500L840.275600,358.351500C839.729611,358.351500,839.287000,357.908889,839.287000,357.362900C839.287000,356.816911,839.729611,356.374300,840.275600,356.374300L879.319200,356.374300C879.865189,356.374300,880.307800,356.816911,880.307800,357.362900C880.307800,357.908889,879.865189,358.351500,879.319200,358.351500Z"
            fill="rgb(36,55,98)"
            stroke="none"
            stroke-width="1"
        />
        <path
            id="landingsvg-path99"
            d="M944.858700,358.351500L905.813800,358.351500C905.460607,358.351500,905.134244,358.163074,904.957647,357.857200C904.781051,357.551326,904.781051,357.174474,904.957647,356.868600C905.134244,356.562726,905.460607,356.374300,905.813800,356.374300L944.858700,356.374300C945.404689,356.374300,945.847300,356.816911,945.847300,357.362900C945.847300,357.908889,945.404689,358.351500,944.858700,358.351500Z"
            fill="rgb(36,55,98)"
            stroke="none"
            stroke-width="1"
        />
      <animateTransform repeatCount="indefinite"/>
    </g>
</svg>
