<svg id="e31d1d3d-e3dc-4e5e-8ce7-7a8bdd60940f" data-name="Layer 1" xmlns="http://www.w3.org/2000/svg"  viewBox="450 150 1024 768">
  <defs>
    <style>
      .a89c81c1-32f6-4b6a-b674-f79c197828c8, .b2457a89-e520-42fa-a4fb-c0bbbdeeca68 {
        fill: #c5d9ff;
      }

      .e146897d-10f8-40c5-9b91-353946b18216 {
        opacity: 0.41;
      }

      .b2457a89-e520-42fa-a4fb-c0bbbdeeca68 {
        opacity: 0.31;
      }

      .bde93dd6-7599-4c95-a96a-f5ad62f32202 {
        fill: #243762;
      }

      .ecd6a4dc-eda0-4fa4-8529-93c62b86ff7b {
        fill: #fff;
      }

      .b3f6a253-cfe6-402a-9c45-e54feb4856a6 {
        fill: #455a64;
      }

      .b871bc13-7134-4b77-852f-7a1673f2bad7 {
        fill: #8d71d8;
      }

      .b4ca366f-644f-491c-9ca7-a85653bee4d0 {
        fill: #ef7086;
      }

      .e87b872d-63ac-421e-8623-f2cc94000b95 {
        fill: #e8505b;
      }

      .e30680c3-8eca-48f3-abbb-cd9f230b212d {
        fill: #263238;
      }

      .ae976bcb-da9d-48a0-99a7-fefb6d71a728 {
        fill: #b78876;
      }

      .e715c40b-8cd4-4ef1-a167-a6995ae8a462 {
        fill: #a36957;
      }

      .b28b3cf4-8209-498e-8ed5-06cda9e26417 {
        opacity: 0.2;
      }

      .e6972742-a1e4-4741-80bf-65f56aa6a951 {
        fill: #ffbe9d;
      }

      .a6329d7e-f84b-4cc6-90d1-3762364968ab {
        fill: #eb996e;
      }

      .f1c9d0f3-4b1c-43d3-901d-ea26f2455203 {
        fill: #e0e0e0;
      }
    </style>
  </defs>
  <title>responsive</title>
  <g>
    <path class="a89c81c1-32f6-4b6a-b674-f79c197828c8" d="M597.6114,703.0731c-3.96-84.9742,39.8091-157.9583,105.8714-199.0858a47.098,47.098,0,0,0,22.0555-34.4954q.1324-1.144.281-2.29c12.1131-93.301,102.8363-158.8438,199.4672-146.2057,92.4313,12.0889,158.9714,59.0358,149.1426,149.445-.0463.4252-.0968,1.0441-.1513,1.8271-1.7162,24.6377,18.4015,45.352,44.0061,45.9357q8.0546.1836,16.2119.9986c110.2735,11.0758,190.267,106.3284,178.5225,212.6706-5.3712,48.6365-29.2531,91.2359-64.137,121.9982H674.0623C630.368,813.68,600.1674,757.9226,597.6114,703.0731Z"/>
    <g class="e146897d-10f8-40c5-9b91-353946b18216">
      <path class="a89c81c1-32f6-4b6a-b674-f79c197828c8" d="M535.8169,681.7943c-4.6435-99.6357,46.6778-185.2121,124.1383-233.4356a55.2233,55.2233,0,0,0,25.8607-40.4471q.1555-1.3416.33-2.6856c14.203-109.3989,120.5793-186.25,233.8827-171.4315,108.3789,14.1747,186.4,69.2213,174.875,175.23-.0541.4987-.1132,1.2241-.1773,2.1425-2.0123,28.8885,21.5766,53.1768,51.5989,53.8611q9.4442.2152,19.009,1.171c129.3,12.9865,223.0951,124.6739,209.3243,249.3639-6.2979,57.028-34.3,106.9779-75.2031,143.0476H625.4587C574.2254,811.4846,538.8142,746.1073,535.8169,681.7943Z"/>
    </g>
    <circle class="b2457a89-e520-42fa-a4fb-c0bbbdeeca68" cx="613.2884" cy="365.2414" r="26.3462"/>
    <circle class="b2457a89-e520-42fa-a4fb-c0bbbdeeca68" cx="1286.8251" cy="275.5411" r="43.5756" transform="translate(182.0653 990.6269) rotate(-45)"/>
    <path class="b2457a89-e520-42fa-a4fb-c0bbbdeeca68" d="M1137.5928,245.0052a16.6534,16.6534,0,1,1-16.6532-16.6535A16.6532,16.6532,0,0,1,1137.5928,245.0052Z"/>
  </g>
  <g>
    <path class="bde93dd6-7599-4c95-a96a-f5ad62f32202" d="M1031.5724,841.0124,873.23,840.28a34.49,34.49,0,0,1-34.3327-34.6366l1.6781-396.9681a34.493,34.493,0,0,1,34.6514-34.3469l158.3426.7316a34.4926,34.4926,0,0,1,34.332,34.6381l-1.6781,396.9691A34.4916,34.4916,0,0,1,1031.5724,841.0124Z"/>
    <path class="ecd6a4dc-eda0-4fa4-8529-93c62b86ff7b" d="M1033.3434,388.7605l-30.7-.1418a7.6257,7.6257,0,0,0-7.4865,7.7584l-.0253,5.5692a7.6247,7.6247,0,0,1-7.4865,7.7584l-59.841-.2763a7.6336,7.6336,0,0,1-7.4219-7.8275l.0245-5.5693a7.6354,7.6354,0,0,0-7.4227-7.8274l-10.7975-.05-26.87-.1241a24.1572,24.1572,0,0,0-24.267,24.0546l-1.638,387.4685a24.1571,24.1571,0,0,0,24.0448,24.26l158.0262.7295a24.1566,24.1566,0,0,0,24.267-24.0538l1.638-387.4709A24.1564,24.1564,0,0,0,1033.3434,388.7605Z"/>
    <path class="b3f6a253-cfe6-402a-9c45-e54feb4856a6" d="M946.4831,775.6438a3.3154,3.3154,0,1,1-3.3154-3.3162A3.3152,3.3152,0,0,1,946.4831,775.6438Z"/>
    <path class="b3f6a253-cfe6-402a-9c45-e54feb4856a6" d="M959.0783,775.6438a3.3154,3.3154,0,1,1-3.3154-3.3162A3.3152,3.3152,0,0,1,959.0783,775.6438Z"/>
    <path class="b3f6a253-cfe6-402a-9c45-e54feb4856a6" d="M971.6742,775.6438a3.3158,3.3158,0,1,1-3.3162-3.3162A3.3158,3.3158,0,0,1,971.6742,775.6438Z"/>
    <path class="b871bc13-7134-4b77-852f-7a1673f2bad7" d="M880.4868,496.8577s-.01-.2852.0066-.8469a11.127,11.127,0,0,1,.41-2.4589,11.66,11.66,0,0,1,1.8131-3.6385,11.3712,11.3712,0,0,1,4.2886-3.5316,13.848,13.848,0,0,1,6.8774-1.14q3.8387-.0012,8.3379-.0037c5.9985.0029,12.8477.0059,20.4546.0088,30.4617.0618,73.0528.1472,121.6788.2453l.904.0021-.6239.6553c-4.963,5.2178-10.2411,10.7655-15.6016,16.4008l.1085-.272c.0008,5.2106.0015,10.7708.0015,16.3831q0,5.4234-.0007,10.78a20.1158,20.1158,0,0,1-.4049,5.4027,11.5391,11.5391,0,0,1-2.5577,4.7907,11.9073,11.9073,0,0,1-4.3858,3.1378,12.9826,12.9826,0,0,1-5.2588.8885q-5.2-.0012-10.3145-.0029c-13.6345-.0082-26.7868-.0157-39.3158-.0231-25.0529-.032-47.6151-.0609-66.572-.0846q-3.5526-.0078-6.9346-.0142a13.2465,13.2465,0,0,1-6.5186-1.1773,11.6679,11.6679,0,0,1-6.5721-9.7225c-.061-7.5558.0207-14.0171.026-19.3226.032-5.28.0572-9.3853.0743-12.2016.017-1.3771.03-2.4328.0394-3.1734.0134-.7146.0408-1.0808.0408-1.0808s.0267.3662.04,1.0808c.0088.7406.0222,1.7963.0394,3.1734.0171,2.8155.0423,6.9214.0743,12.2016.0415,5.2914.0067,11.7981.1077,19.292a11.2026,11.2026,0,0,0,6.3484,9.2991,12.7237,12.7237,0,0,0,6.3,1.0987q3.3807-.0066,6.9346-.0141c18.9569-.0238,41.5191-.0527,66.572-.0846,12.529-.0075,25.6813-.0149,39.3158-.0232q5.1135-.001,10.3145-.0036a12.2,12.2,0,0,0,4.96-.832,11.1211,11.1211,0,0,0,4.0931-2.932,10.742,10.742,0,0,0,2.3847-4.4714,19.3845,19.3845,0,0,0,.378-5.2014v-10.78c0-5.6123.0008-11.1725.0008-16.3831V502.12l.1092-.1143c5.3635-5.6324,10.6437-11.1778,15.6105-16.3928l.28.6576c-48.6253-.2066-91.2156-.3871-121.6773-.5156-7.6069-.0446-14.456-.0848-20.4539-.12l-8.3379-.0557a13.574,13.574,0,0,0-6.7593,1.0511,11.2032,11.2032,0,0,0-4.2387,3.409,11.7151,11.7151,0,0,0-1.8445,3.5524A15.9374,15.9374,0,0,0,880.4868,496.8577Z"/>
    <polygon class="b871bc13-7134-4b77-852f-7a1673f2bad7" points="1010.268 506.585 896.518 506.059 896.53 502.563 1010.279 503.089 1010.268 506.585"/>
    <polygon class="b871bc13-7134-4b77-852f-7a1673f2bad7" points="1010.268 518.087 896.518 517.562 896.53 514.065 1010.279 514.591 1010.268 518.087"/>
    <rect class="b871bc13-7134-4b77-852f-7a1673f2bad7" x="986.0233" y="504.9356" width="3.4959" height="45.0081" transform="matrix(0.0049, -1, 1, 0.0049, 455.4799, 1512.6049)"/>
    <path class="b4ca366f-644f-491c-9ca7-a85653bee4d0" d="M1035.14,573.9011v34.96a11.4521,11.4521,0,0,1-11.4527,11.4519H898.3332a11.4526,11.4526,0,0,1-11.4526-11.4519v-29.54l-15.6067-16.3964,152.3774-.4768A11.4531,11.4531,0,0,1,1035.14,573.9011Z"/>
    <polygon class="ecd6a4dc-eda0-4fa4-8529-93c62b86ff7b" points="905.358 583.63 1019.109 583.104 1019.097 579.607 905.346 580.133 905.358 583.63"/>
    <polygon class="ecd6a4dc-eda0-4fa4-8529-93c62b86ff7b" points="905.358 595.13 1019.109 594.606 1019.097 591.11 905.346 591.635 905.358 595.13"/>
    <rect class="ecd6a4dc-eda0-4fa4-8529-93c62b86ff7b" x="905.3512" y="602.7351" width="45.0081" height="3.4958" transform="translate(-2.9618 4.5707) rotate(-0.2818)"/>
    <path class="e87b872d-63ac-421e-8623-f2cc94000b95" d="M966.8946,439.9688a6.1482,6.1482,0,0,0,3.663-5.6874,5.7773,5.7773,0,1,0-11.5306-.0534,6.138,6.138,0,0,0,3.6735,5.7408c-8.8728,1.3364-8.47,10.9794-8.47,10.9794l20.9805.0967S975.6894,441.2969,966.8946,439.9688Z"/>
    <path class="b4ca366f-644f-491c-9ca7-a85653bee4d0" d="M966.8946,439.9688a6.1482,6.1482,0,0,0,3.663-5.6874,5.7773,5.7773,0,1,0-11.5306-.0534,6.138,6.138,0,0,0,3.6735,5.7408c-8.8728,1.3364-8.47,10.9794-8.47,10.9794l20.9805.0967S975.6894,441.2969,966.8946,439.9688Z"/>
    <path class="b871bc13-7134-4b77-852f-7a1673f2bad7" d="M955.38,439.9688a6.1486,6.1486,0,0,0,3.6631-5.6874,5.7774,5.7774,0,1,0-11.5307-.0534,6.1392,6.1392,0,0,0,3.6734,5.7408c-8.8719,1.3364-8.4694,10.9794-8.4694,10.9794l20.9807.0967S964.175,441.2969,955.38,439.9688Z"/>
    <rect class="e87b872d-63ac-421e-8623-f2cc94000b95" x="931.0235" y="455.2583" width="56.3926" height="6.9922" transform="translate(2.1303 -4.428) rotate(0.2648)"/>
    <rect class="a89c81c1-32f6-4b6a-b674-f79c197828c8" x="931.0235" y="455.2583" width="56.3926" height="6.9922" transform="translate(2.1303 -4.428) rotate(0.2648)"/>
    <path class="b871bc13-7134-4b77-852f-7a1673f2bad7" d="M883.1247,653.5741a4.3765,4.3765,0,0,1,.0252-.8305,5.6784,5.6784,0,0,1,.7726-2.3177,6.1651,6.1651,0,0,1,2.9863-2.6029c1.508-.6776,3.4-.41,5.4206-.4725,8.2168-.0029,20.1-.0044,34.8817-.009,29.6281.061,70.8717.1471,117.455.2437l.9025.0015-.6166.66c-4.9162,5.2609-10.1117,10.822-15.3823,16.4617l.1069-.27v1.3073q0,4.89-.0008,9.72c-.008.8143.0172,1.5882-.0178,2.4321a6.469,6.469,0,0,1-4.3286,5.7616,7.01,7.01,0,0,1-2.467.3685h-2.3674q-2.3648,0-4.7092-.0014-4.69-.0023-9.3012-.003c-12.2959-.009-24.1564-.0163-35.4552-.0238-22.5918-.0312-42.9373-.061-60.0342-.0847q-6.4071-.0156-12.1888-.0282-2.8871-.0068-5.607-.0149-1.3594-.0045-2.6758-.0074a12.4129,12.4129,0,0,1-2.6261-.1485,6.3265,6.3265,0,0,1-4.0322-2.8646,6.2608,6.2608,0,0,1-.8386-2.2285,13.1171,13.1171,0,0,1-.0907-2.2553c.0126-2.9046.0237-5.56.0349-7.9516.0319-4.7572.0564-8.46.0744-11.0032.017-1.2392.03-2.19.0392-2.8629.0134-.6449.04-.9748.04-.9748s.0275.33.0409.9748c.0088.6729.0222,1.6237.0392,2.8629.0172,2.5436.0425,6.246.0744,11.0032.01,2.392.0215,5.047.0341,7.9516a12.9311,12.9311,0,0,0,.1018,2.1883,5.8925,5.8925,0,0,0,4.5746,4.7262,12.055,12.055,0,0,0,2.5339.1232q1.3158-.0044,2.6758-.0073,2.72-.0068,5.607-.0149,5.7742-.0135,12.1888-.0283c17.0969-.0237,37.4424-.0534,60.0342-.0846,11.2988-.0074,23.1593-.0149,35.4552-.0237q4.6109-.0023,9.3012-.003,2.3446,0,4.7092-.0016h2.3674a6.2454,6.2454,0,0,0,2.207-.3252,5.7182,5.7182,0,0,0,3.2456-2.9018,5.657,5.657,0,0,0,.5534-2.16c.0328-.7576.0089-1.5927.0163-2.389q0-4.8293-.0007-9.72v-1.4634l.1069-.1144c5.2722-5.6382,10.4692-11.1978,15.3869-16.4573l.286.6612c-46.5825-.2006-87.8259-.3773-117.4541-.5036-14.7823-.0981-26.6642-.1769-34.881-.2319-2.0414.0387-3.9-.2422-5.339.3894a6.051,6.051,0,0,0-2.94,2.4766,5.8387,5.8387,0,0,0-.8253,2.2509C883.1432,653.2919,883.1463,653.5756,883.1247,653.5741Z"/>
    <polygon class="b871bc13-7134-4b77-852f-7a1673f2bad7" points="1015.368 662.796 901.618 662.272 901.63 658.776 1015.38 659.3 1015.368 662.796"/>
    <rect class="b871bc13-7134-4b77-852f-7a1673f2bad7" x="990.5508" y="649.1113" width="3.4959" height="46.1532" transform="translate(315.2647 1661.1866) rotate(-89.7197)"/>
    <path class="b4ca366f-644f-491c-9ca7-a85653bee4d0" d="M1031.1356,715.9788v23.9676a6.0916,6.0916,0,0,1-6.0907,6.0914H891.071a6.0916,6.0916,0,0,1-6.0907-6.0914V726.8423l-15.3846-16.46,155.43-.4947A6.0908,6.0908,0,0,1,1031.1356,715.9788Z"/>
    <polygon class="ecd6a4dc-eda0-4fa4-8529-93c62b86ff7b" points="898.893 725.201 1012.643 724.675 1012.631 721.179 898.881 721.705 898.893 725.201"/>
    <polygon class="ecd6a4dc-eda0-4fa4-8529-93c62b86ff7b" points="898.893 736.453 1012.645 735.928 1012.633 732.432 898.881 732.957 898.893 736.453"/>
  </g>
  <g>
    <path class="e30680c3-8eca-48f3-abbb-cd9f230b212d" d="M884.6131,844.7673c.2139-.0266.5244,1.0431.5133,2.398-.0074,1.3565-.3335,2.4218-.5468,2.3921-.22-.0312-.2525-1.1-.2458-2.3965C884.3457,845.8638,884.3925,844.7941,884.6131,844.7673Z"/>
    <path class="e30680c3-8eca-48f3-abbb-cd9f230b212d" d="M897.7059,845.9946c.2215.0728-.228,1.774-.066,3.8792.1322,2.1067.8141,3.7277.6047,3.8316-.1694.116-1.2443-1.4781-1.3951-3.7766C896.6793,847.6319,897.5218,845.904,897.7059,845.9946Z"/>
    <g>
      <path class="bde93dd6-7599-4c95-a96a-f5ad62f32202" d="M810.2907,676.1681l-1.9157.0239-.2764-6.4823-25.6962,1.5644s.2644,3.074.2369,5.1615c-15.8139,1.5644-41.1774,9.6379-41.7828,45.2653l20.3.462c-1.73,16.3385-1.4642,26.0981-3.1794,32.2313-2.8348,10.1326-11.8041,31.5105-9.9974,32.5951s85.07,2.6253,89.045.4561c3.9735-2.1676-3.2582-30.068-5.0656-37.654-1.1492-4.83-1.3891-15.918-1.4173-24.4832l23.3087-1.04S855.5027,676.0374,810.2907,676.1681Z"/>
      <path class="ae976bcb-da9d-48a0-99a7-fefb6d71a728" d="M782.9425,677.5276c.44-2.57-.54-11.9734-.54-11.9734s-9.8562-1.043-10.455-10.8176,0-32.3158,0-32.3158l17.9534-8.7762,19.7475,14.96-2.9915,48.8727Z"/>
      <path class="e30680c3-8eca-48f3-abbb-cd9f230b212d" d="M774.6752,638.7607a1.251,1.251,0,1,0,1.251-1.2509A1.251,1.251,0,0,0,774.6752,638.7607Z"/>
      <path class="e30680c3-8eca-48f3-abbb-cd9f230b212d" d="M772.8425,637.8619c.1613.162,1.0862-.624,2.4321-.6968,1.3461-.0921,2.3586.5764,2.499.3952.0691-.08-.0987-.3774-.5408-.682a3.326,3.326,0,0,0-3.9364.2407C772.8946,637.4741,772.7645,637.7905,772.8425,637.8619Z"/>
      <circle class="e30680c3-8eca-48f3-abbb-cd9f230b212d" cx="790.478" cy="638.529" r="1.251"/>
      <path class="e30680c3-8eca-48f3-abbb-cd9f230b212d" d="M787.3943,637.63c.1621.1619,1.0862-.624,2.4323-.6967,1.3459-.0907,2.3586.5764,2.4988.3966.0693-.0817-.0979-.3788-.5407-.6819a3.3215,3.3215,0,0,0-3.9356.2392C787.4464,637.2423,787.3165,637.5588,787.3943,637.63Z"/>
      <path class="e30680c3-8eca-48f3-abbb-cd9f230b212d" d="M782.77,648.8637a8.9588,8.9588,0,0,0-2.204-.2793c-.3432-.018-.6782-.0685-.748-.318a1.9037,1.9037,0,0,1,.1915-1.0846q.439-1.3281.9227-2.7917a51.6822,51.6822,0,0,0,2.0561-7.2755,51.9625,51.9625,0,0,0-2.5828,7.1061q-.4626,1.4709-.8818,2.8052a2.164,2.164,0,0,0-.1322,1.41.8379.8379,0,0,0,.5749.4873,2.2213,2.2213,0,0,0,.5847.052A8.7884,8.7884,0,0,0,782.77,648.8637Z"/>
      <path class="ecd6a4dc-eda0-4fa4-8529-93c62b86ff7b" d="M787.2191,650.1384c-.6715.3817-3.8629,2.288-6.5127,2.2419a3.7281,3.7281,0,0,0,4.4654,1.2673C788.0466,652.4337,787.2191,650.1384,787.2191,650.1384Z"/>
      <path class="e715c40b-8cd4-4ef1-a167-a6995ae8a462" d="M782.4024,665.5542a24.4091,24.4091,0,0,0,12.95-4.3739s-2.9351,7.176-12.7371,6.7718Z"/>
      <path class="b4ca366f-644f-491c-9ca7-a85653bee4d0" d="M822.6349,635.8369s3.975,22.5338-15.0578,26.6017l.5691-27.15Z"/>
      <path class="b4ca366f-644f-491c-9ca7-a85653bee4d0" d="M822.0094,630.86a34.1594,34.1594,0,0,0-6.52-13.2154c2.7464,1.141,4.6272,2.2924,4.9542,1.915.1871-.2214-.33-1.0519-1.5-2.0592a15.7956,15.7956,0,0,0-5.2663-2.8748c-.3038-.1-.5979-.1634-.8973-.2422a10.6757,10.6757,0,0,0,3.377-2.178c2.28-2.23,3.3064-5.885,1.901-8.7479a7.2005,7.2005,0,0,0-7.121-3.7248,9.0781,9.0781,0,0,0-6.7608,4.6963,10.5809,10.5809,0,0,0-.8112,1.887,26.5339,26.5339,0,0,1,.3365-3.2241c.6032-3.7648,2.0087-6.5816,1.7829-6.6932-.1657-.1218-1.9627,2.63-2.5971,6.5581-.0617.3624-.0988.71-.1367,1.0592a21.7335,21.7335,0,0,0-1.1-2.8436c-.9374-1.9685-1.8118-3.0145-2.0666-2.8838-.5392.269,1.2036,4.3858,1.9166,9.95a19.95,19.95,0,0,0-5.2943-.9775c-3.3214,0-8.8214-1.5958-16.6244,4.726a23.5031,23.5031,0,0,0-10.8829,19.188,20.5463,20.5463,0,0,0,.2614,4.0859,4.6743,4.6743,0,0,0,.3752,1.4544c.1553-.0209-.2927-2.1216-.0534-5.5091a25.1132,25.1132,0,0,1,1.658-7.3438,18.5486,18.5486,0,0,0,.7413,12.2824l17.4157-2.7219c-1.121-3.82-.2987-9.8741.2213-12.841,3.0732,14.2213,15.2947,21.0629,15.2947,21.0629l18.3308-2.8837C822.7,637.1027,822.3957,632.3365,822.0094,630.86Z"/>
      <path class="e87b872d-63ac-421e-8623-f2cc94000b95" d="M864.1786,848.7372c.5593.2765,45.4978,9.0822,43.8412,3.1156-1.6557-5.9682-43.4409-15.6432-43.4409-15.6432Z"/>
      <path class="e30680c3-8eca-48f3-abbb-cd9f230b212d" d="M882.2174,843.9458c.208-.0386.59,1.2109.4494,2.7887-.133,1.5793-.7236,2.7441-.9219,2.67-.2139-.0713.0112-1.2673.1323-2.7381C882.01,845.1982,881.9945,843.98,882.2174,843.9458Z"/>
      <path class="e30680c3-8eca-48f3-abbb-cd9f230b212d" d="M879.3164,843.7007c.2149-.0224.5179,1.19.5453,2.7129.0306,1.5243-.2258,2.747-.442,2.7323-.2206-.0134-.32-1.23-.35-2.7175C879.0432,844.9428,879.0958,843.7229,879.3164,843.7007Z"/>
      <path class="e30680c3-8eca-48f3-abbb-cd9f230b212d" d="M873.7875,839.3059a2.3772,2.3772,0,0,1,.7034.0848c.4562.08,1.1239.2168,1.9827.404,1.7152.376,4.1882.9657,7.2191,1.7948,3.0293.829,6.6174,1.8958,10.553,3.2284,1.9635.6776,4.0338,1.3579,6.1339,2.2568a19.517,19.517,0,0,1,5.9978,3.7768,2.6289,2.6289,0,0,1,.6567.8156,1.0315,1.0315,0,0,1-.3737,1.2554,3.74,3.74,0,0,1-1.904.4219c-1.17.0922-2.3251.1293-3.4594.162-2.2695.0475-4.4572-.0312-6.5357-.16-4.157-.2629-7.8692-.7874-10.9728-1.2717-3.1022-.4963-5.5974-.9732-7.3186-1.3164-.7822-.1663-1.4345-.3046-1.9782-.419a2.3942,2.3942,0,0,1-.68-.199,18.1047,18.1047,0,0,1,2.71.3134c1.8631.27,4.3428.63,7.3492,1.0668,3.1043.4115,6.8068.8766,10.9341,1.0979,2.0622.107,4.2306.1709,6.4748.1114,1.1217-.0356,2.2635-.0771,3.4186-.1708a3.3066,3.3066,0,0,0,1.5014-.2794c.14-.11.1462-.1678.1039-.3059a2.1052,2.1052,0,0,0-.4783-.5527,18.9693,18.9693,0,0,0-5.7551-3.6341c-2.0465-.887-4.1124-1.5838-6.0616-2.2791-3.91-1.3639-7.468-2.4841-10.4707-3.38s-5.4488-1.5659-7.1387-2.0339A19.2212,19.2212,0,0,1,873.7875,839.3059Z"/>
      <path class="e87b872d-63ac-421e-8623-f2cc94000b95" d="M715.5369,839.8393c-.618-.0773-45.9718,6.2593-42.4588,11.36,3.5122,5.0989,46.1672.6136,46.1672.6136Z"/>
      <path class="e30680c3-8eca-48f3-abbb-cd9f230b212d" d="M697.5152,850.2586c-.1925.0966-.8357-.8141-1.2673-2.0993-.4353-1.2836-.4747-2.3979-.2637-2.438.2176-.0431.5971.9567,1.0146,2.1854C697.4111,849.1369,697.7149,850.162,697.5152,850.2586Z"/>
      <path class="e30680c3-8eca-48f3-abbb-cd9f230b212d" d="M700.0482,850.2542c-.1842.1039-.9522-.9524-1.334-2.4887-.39-1.5361-.2118-2.83,0-2.8258.225-.0015.4033,1.2034.7681,2.6328C699.8359,849.0032,700.2482,850.15,700.0482,850.2542Z"/>
      <path class="e30680c3-8eca-48f3-abbb-cd9f230b212d" d="M702.87,849.54c-.1961.092-.8772-.9554-1.401-2.3861-.526-1.4307-.6819-2.67-.4732-2.7279.2132-.0579.7035,1.0594,1.2176,2.4545C702.7233,848.2767,703.0711,849.4459,702.87,849.54Z"/>
      <path class="e30680c3-8eca-48f3-abbb-cd9f230b212d" d="M709.5308,851.8915a2.4383,2.4383,0,0,1-.693.1485c-.4568.0729-1.1335.162-2.0057.2644-1.7443.2051-4.2743.4532-7.4093.66-3.1348.2035-6.8743.3655-11.0292.3908-2.077,0-4.2559.0312-6.5349-.1337a19.5069,19.5069,0,0,1-6.9019-1.6136,2.6111,2.6111,0,0,1-.8869-.5556,1.0328,1.0328,0,0,1-.0559-1.309,3.7286,3.7286,0,0,1,1.6626-1.0192c1.0756-.47,2.155-.8825,3.2166-1.282,2.13-.7861,4.2238-1.4249,6.23-1.9806,4.0158-1.1083,7.696-1.8229,10.7877-2.3771,3.094-.5437,5.6086-.9063,7.3477-1.1441.7941-.098,1.4552-.1812,2.0063-.25a2.4189,2.4189,0,0,1,.7081-.0327,18.1047,18.1047,0,0,1-2.6647.5868c-1.8489.3522-4.31.8217-7.2941,1.3907-3.0687.6225-6.7207,1.3907-10.6942,2.5287-1.9849.5705-4.0554,1.2183-6.1576,2.0058-1.0488.401-2.1141.8125-3.1749,1.2776a3.3,3.3,0,0,0-1.3282.7532c-.0966.15-.084.2066.0014.3239a2.0647,2.0647,0,0,0,.6322.3656,18.9382,18.9382,0,0,0,6.6255,1.557c2.2241.1724,4.4045.1575,6.4733.1768,4.1415.0163,7.8707-.0876,11-.22s5.6621-.2971,7.4123-.4071A19.2963,19.2963,0,0,1,709.5308,851.8915Z"/>
      <path class="e30680c3-8eca-48f3-abbb-cd9f230b212d" d="M684.7388,853.37c-.2334.0045-.3633-1.75-1.2028-3.6875-.8127-1.9492-1.9863-3.26-1.8222-3.4247.1233-.1649,1.6588.9911,2.5509,3.1157C685.1748,851.4873,684.9422,853.3964,684.7388,853.37Z"/>
      <path class="b3f6a253-cfe6-402a-9c45-e54feb4856a6" d="M856.2337,784.7874h-23.08l-85.174,2.2019-24.28-3.1527c-3.8-.8305-6.29-1.1811-7.0906-.92-2.3578.77-5.5766,3.0414-8.3208,6.3189-9.285,11.0864-3.4469,28.1573,10.5137,31.9324l13.1234,3.5494-28.7019,9.22,9.6966,27.5051s42.84-9.2635,84.3887-19.0439l66.4919,17.9816,9.5814-30.8643s-4.2262-1.3846-11.2714-3.6726c7.0668-2.1529,11.5469-3.8645,12.2059-4.89,4.1726-6.49,11.5916-36.63-18.0834-36.1669"/>
      <polygon class="b28b3cf4-8209-498e-8ed5-06cda9e26417" points="861.674 825.978 812.258 846.44 797.311 842.398 861.674 825.978"/>
      <polygon class="b28b3cf4-8209-498e-8ed5-06cda9e26417" points="732.054 787.09 795.323 805.212 843.499 788.783 732.054 787.09"/>
      <path class="e30680c3-8eca-48f3-abbb-cd9f230b212d" d="M723.0479,859.4433a22.8,22.8,0,0,1-2.0123-3.98c-1.13-2.5094-2.5866-6.0245-4.0278-9.9722-1.4389-3.9475-2.5882-7.5757-3.34-10.2232a22.7217,22.7217,0,0,1-1.0237-4.3412,27.2576,27.2576,0,0,1,1.5579,4.1733c.8869,2.5986,2.1156,6.1851,3.55,10.1208,1.4359,3.9327,2.8049,7.4672,3.8,10.027A27.248,27.248,0,0,1,723.0479,859.4433Z"/>
      <path class="e30680c3-8eca-48f3-abbb-cd9f230b212d" d="M875.5539,795.0389a1.6823,1.6823,0,0,1-.3952.1753c-.31.1144-.7.2571-1.1856.4369-1.1032.3863-2.6364.9241-4.5835,1.6075-4.0514,1.3727-9.8168,3.3265-16.9171,5.7319-14.3044,4.7825-34.1127,11.247-56.0687,18.1391-21.9641,6.8923-41.9159,12.9064-56.3875,17.1556l-17.1578,4.9623c-1.9878.5512-3.553.9866-4.6793,1.2985-.5007.1308-.9032.2363-1.2227.3195a1.7374,1.7374,0,0,1-.4242.0817,1.7784,1.7784,0,0,1,.402-.16c.3126-.1024.7079-.2317,1.2-.3938,1.1158-.3461,2.6677-.829,4.637-1.4425,4.0923-1.2451,9.9142-3.019,17.085-5.2015,14.4286-4.3859,34.3506-10.4847,56.3108-17.3754,21.9517-6.8908,41.7837-13.269,56.1313-17.9148,7.1322-2.306,12.9243-4.1764,16.9944-5.4928,1.967-.6226,3.5159-1.1143,4.63-1.4665.4962-.1484.8944-.2673,1.21-.3624A1.7563,1.7563,0,0,1,875.5539,795.0389Z"/>
      <path class="e30680c3-8eca-48f3-abbb-cd9f230b212d" d="M829.4922,793.9276a5.1592,5.1592,0,0,1-.9716.413c-.7235.2659-1.6648.6107-2.8355,1.04-2.47.8826-6.0551,2.1277-10.4958,3.6326-8.88,3.0146-21.1872,7.06-34.812,11.4252-13.6314,4.3606-26.0007,8.2145-34.98,10.9185-4.4891,1.3536-8.1306,2.4217-10.6534,3.1378-1.2026.3314-2.1692.5973-2.9119.8009a5.158,5.158,0,0,1-1.0312.2273,5.4415,5.4415,0,0,1,.9851-.38c.7316-.2407,1.684-.5527,2.8681-.9419,2.5866-.8261,6.1777-1.973,10.5769-3.3785,9.0108-2.8749,21.3119-6.8,34.9054-11.1384,13.581-4.3621,25.8731-8.31,34.8772-11.2024,4.3978-1.4113,7.988-2.5629,10.5732-3.3919,1.1908-.3713,2.1476-.67,2.883-.8988A5.3283,5.3283,0,0,1,829.4922,793.9276Z"/>
      <path class="e30680c3-8eca-48f3-abbb-cd9f230b212d" d="M795,805.1092c-.06.21-14.2013-3.6534-31.5806-8.6291-17.3851-4.9756-31.4258-9.18-31.3657-9.39s14.1984,3.652,31.5834,8.6291C781.0169,800.6936,795.06,804.8982,795,805.1092Z"/>
      <path class="e30680c3-8eca-48f3-abbb-cd9f230b212d" d="M864.09,827.45c.2041.08-2.2346,6.8522-5.4475,15.1262s-5.9822,14.9181-6.1865,14.8393,2.2344-6.8506,5.448-15.1261C861.1158,834.0153,863.8859,827.3712,864.09,827.45Z"/>
      <path class="e30680c3-8eca-48f3-abbb-cd9f230b212d" d="M858.1584,840.1885c-.0565.2108-5.6242-1.0906-12.4347-2.9062-6.8127-1.8154-12.2884-3.4587-12.232-3.67s5.6227,1.089,12.4363,2.9046C852.7385,838.3327,858.2148,839.9759,858.1584,840.1885Z"/>
      <path class="e30680c3-8eca-48f3-abbb-cd9f230b212d" d="M763.527,814.9624a13.9753,13.9753,0,0,1-2.3592-.468c-1.638-.4041-3.7774-.93-6.3567-1.5644-5.3538-1.3683-12.763-3.2255-20.85-5.6591a165.1479,165.1479,0,0,1-20.3032-7.439c-2.519-1.1514-4.521-2.16-5.88-2.9A13.8751,13.8751,0,0,1,705.71,795.7a14.1,14.1,0,0,1,2.2056.9568c1.3989.6522,3.43,1.5809,5.9667,2.6609a201.8133,201.8133,0,0,0,20.3082,7.1938c8.063,2.4277,15.4471,4.37,20.7652,5.876,2.5525.7341,4.67,1.3431,6.2912,1.8082A14.1663,14.1663,0,0,1,763.527,814.9624Z"/>
      <path class="e30680c3-8eca-48f3-abbb-cd9f230b212d" d="M808.2769,675.9171a16.6436,16.6436,0,0,1-3.7738.6432c-2.3465.27-5.6041.5215-9.21.5973-3.6058.0742-6.8715-.04-9.2278-.2124a16.4045,16.4045,0,0,1-3.7967-.4859,20.6077,20.6077,0,0,1,3.8205-.0743c2.3526.0283,5.6012.055,9.1877-.0193s6.8291-.2376,9.18-.3639A20.3757,20.3757,0,0,1,808.2769,675.9171Z"/>
      <path class="e30680c3-8eca-48f3-abbb-cd9f230b212d" d="M787.0467,670.9963c.2192,0,.396,1.2526.396,2.7962s-.1768,2.7961-.396,2.7961-.3958-1.2524-.3958-2.7961S786.8284,670.9963,787.0467,670.9963Z"/>
      <path class="e30680c3-8eca-48f3-abbb-cd9f230b212d" d="M793.92,670.5106c.2184-.006.4324,1.3683.477,3.07s-.0966,3.0843-.3158,3.09-.4323-1.37-.4761-3.0695S793.702,670.5165,793.92,670.5106Z"/>
      <path class="e30680c3-8eca-48f3-abbb-cd9f230b212d" d="M801.0043,670.2653c.2154-.0207.5215,1.3505.5565,3.0695.0386,1.719-.2087,3.1023-.4242,3.09-.2215-.01-.33-1.3863-.3677-3.0739C800.7339,671.665,800.7844,670.2862,801.0043,670.2653Z"/>
      <path class="e30680c3-8eca-48f3-abbb-cd9f230b212d" d="M806.1531,670.0246c.2228.0016.3855,1.3387.5957,2.9685.2036,1.6314.38,2.967.1642,3.025-.2065.058-.7383-1.2332-.95-2.9255C805.7452,671.4019,805.9384,670.02,806.1531,670.0246Z"/>
      <path class="e30680c3-8eca-48f3-abbb-cd9f230b212d" d="M764.4036,721.7188c-.2183.0014-.4241-3.4231-.46-7.6485s.1136-7.6544.3327-7.6574.4242,3.4231.46,7.65S764.6229,721.7173,764.4036,721.7188Z"/>
      <path class="e30680c3-8eca-48f3-abbb-cd9f230b212d" d="M829.747,724.2682c-.2183.0193-.7058-3.6623-1.0882-8.2189-.3834-4.56-.5172-8.27-.2994-8.2874s.7057,3.6609,1.0882,8.22S829.9647,724.25,829.747,724.2682Z"/>
      <path class="e30680c3-8eca-48f3-abbb-cd9f230b212d" d="M764.4036,721.7188a16.4348,16.4348,0,0,1-3.49.1084c-2.4544-.0178-5.2773-.0385-8.3935-.0624-3.1178.0149-5.9407.03-8.3951.0417a16.3855,16.3855,0,0,1-3.4892-.119,14.4084,14.4084,0,0,1,3.4677-.4412c2.15-.1559,5.1272-.2778,8.4173-.2734s6.2667.1337,8.4158.2958A14.35,14.35,0,0,1,764.4036,721.7188Z"/>
      <path class="e30680c3-8eca-48f3-abbb-cd9f230b212d" d="M853.8506,724.2682c0,.2185-5.5567.3968-12.41.3968-6.855,0-12.41-.1783-12.41-.3968s5.5551-.3951,12.41-.3951C848.2939,723.8731,853.8506,724.05,853.8506,724.2682Z"/>
      <path class="ae976bcb-da9d-48a0-99a7-fefb6d71a728" d="M852.8209,724.4629s6.0737,56.7945-11.3188,62.3823c-17.3941,5.5849-51.75-20.8683-51.75-20.8683l9.8941-20.0142s22.8837,15.8511,27.7509,12.2824,2.35-33.7822,2.35-33.7822Z"/>
      <path class="ae976bcb-da9d-48a0-99a7-fefb6d71a728" d="M741.1849,721.7188s-6.1917,56.2255,11.2015,61.8132c17.3933,5.5848,51.75-20.8684,51.75-20.8684l-9.8948-20.014s-22.9552,14.6685-27.7154,10.9571c-2.7537-2.1483-2.8348-31.5953-2.8348-31.5953C755.5681,721.6653,748.0712,721.3176,741.1849,721.7188Z"/>
      <path class="e30680c3-8eca-48f3-abbb-cd9f230b212d" d="M842.0027,733.4441l-11.547,56.5895s-70.9638-.5468-71.7022-.7653c-.7377-.2139-7.5816-55.8242-7.5816-55.8242Z"/>
      <path class="ecd6a4dc-eda0-4fa4-8529-93c62b86ff7b" d="M791.0359,762.108a4.262,4.262,0,1,0,4.2513-3.9713A4.1206,4.1206,0,0,0,791.0359,762.108Z"/>
      <path class="ae976bcb-da9d-48a0-99a7-fefb6d71a728" d="M805.9376,637.9481a4.6127,4.6127,0,0,1,4.316-.269,4.4745,4.4745,0,0,1,1.6172,2.8348,5.8791,5.8791,0,0,1-1.2858,5.1569,4.0029,4.0029,0,0,1-5.0195.6834"/>
      <path class="e715c40b-8cd4-4ef1-a167-a6995ae8a462" d="M807.7718,644.8031c-.01-.1247.4739-.2035,1.0444-.6239a2.4961,2.4961,0,0,0-.4012-4.3161c-.6373-.309-1.1291-.2972-1.1418-.4219-.0266-.0936.4889-.3448,1.341-.1278a2.8981,2.8981,0,0,1,.4991,5.3679C808.3155,645.0513,807.7628,644.9,807.7718,644.8031Z"/>
    </g>
  </g>
  <g>
    <path class="e87b872d-63ac-421e-8623-f2cc94000b95" d="M1149.9294,839.7l-2.9625-16.074-28.84,5.1169,4.1926,24.082,1.81-.1976c8.0406-.9509,40.7123-5.9459,45.7325-8.5741C1175.46,841.1194,1149.9294,839.7,1149.9294,839.7Z"/>
    <path class="e30680c3-8eca-48f3-abbb-cd9f230b212d" d="M1170.2711,842.4565c.05.2688-10.6838,2.4751-23.972,4.9251-13.2928,2.45-24.1051,4.2165-24.1548,3.946-.05-.2688,10.6815-2.4751,23.9743-4.9251C1159.4069,843.9526,1170.2214,842.186,1170.2711,842.4565Z"/>
    <path class="e30680c3-8eca-48f3-abbb-cd9f230b212d" d="M1151.0414,842.8874c-.26-.08-.2131-.9673.2512-1.9182.462-.9537,1.1328-1.5392,1.3557-1.3846.23.159-.0356.9375-.4605,1.8185C1151.7591,842.2811,1151.306,842.9719,1151.0414,842.8874Z"/>
    <path class="e30680c3-8eca-48f3-abbb-cd9f230b212d" d="M1153.074,843.6079c-.2675-.0475-.3136-1.0238.0683-2.1306.3781-1.1083,1.017-1.8481,1.2562-1.7218.2466.1291.0356,1.0147-.3149,2.0457C1153.7277,842.8294,1153.3474,843.66,1153.074,843.6079Z"/>
    <path class="e30680c3-8eca-48f3-abbb-cd9f230b212d" d="M1130.8023,849.6205c-.0973.1-.6046-.2436-1.358-.8364a19.2019,19.2019,0,0,0-2.9929-2.0652,6.7386,6.7386,0,0,0-3.3681-.7874c-.8967.0445-1.4464.2868-1.5214.1545-.07-.0966.3914-.5957,1.4173-.85a5.8162,5.8162,0,0,1,3.9261.5973,10.6656,10.6656,0,0,1,3.0226,2.44C1130.5719,849.01,1130.8974,849.524,1130.8023,849.6205Z"/>
    <path class="e30680c3-8eca-48f3-abbb-cd9f230b212d" d="M1150.5713,839.849c.1827.2021-.2081.8514-.9747,1.3029-.7659.4561-1.5235.4859-1.6119.2288-.0922-.2613.4337-.6818,1.1037-1.083C1149.7623,839.9,1150.3863,839.6426,1150.5713,839.849Z"/>
    <path class="e30680c3-8eca-48f3-abbb-cd9f230b212d" d="M1149.8328,838.38c.0758.2644-.6493.6373-1.6187.829s-1.782.1247-1.8139-.1471c-.0306-.2734.6945-.6448,1.62-.829S1149.7578,838.1151,1149.8328,838.38Z"/>
    <path class="e30680c3-8eca-48f3-abbb-cd9f230b212d" d="M1184.6194,669.8384c-8.9387-18.0323-56.7967-87.763-56.7967-87.763l-25.547,2.6655-.03-.1487-28.5859,3.1335h-.0059l-15.7688,1.7293,57.0724,249.2486,39.4607-.7132-9.4931-46.1078C1151.4946,775.5294,1189.5646,679.8134,1184.6194,669.8384Zm-40.7108,10.7535-14.1018,37.8636-15.984-77.6332Z"/>
    <path class="e6972742-a1e4-4741-80bf-65f56aa6a951" d="M1112.2435,466.9464c-.36-2.5985,1.0369-13.4167,1.0369-13.4167s9.941-.73,10.8576-10.5352,1.0431-32.4815,1.0431-32.4815l-17.7618-9.4016-20.3328,14.4-5.2669,13.6849,6.9287,17.01-.2073,5.6346-.0237,12.89Z"/>
    <path class="e30680c3-8eca-48f3-abbb-cd9f230b212d" d="M1123.8551,426.9508a1.258,1.258,0,1,1-1.2168-1.2977A1.2578,1.2578,0,0,1,1123.8551,426.9508Z"/>
    <path class="e30680c3-8eca-48f3-abbb-cd9f230b212d" d="M1123.9413,425.6323c-.1679.1576-1.0713-.6626-2.4225-.7785-1.35-.1359-2.389.5029-2.525.3172-.0662-.0832.1114-.3773.5661-.6685a3.3433,3.3433,0,0,1,3.9483.3685C1123.9012,425.2408,1124.0215,425.5626,1123.9413,425.6323Z"/>
    <path class="e30680c3-8eca-48f3-abbb-cd9f230b212d" d="M1107.969,425.414a1.258,1.258,0,1,1-1.7582.2711A1.258,1.258,0,0,1,1107.969,425.414Z"/>
    <path class="e30680c3-8eca-48f3-abbb-cd9f230b212d" d="M1108.9333,425.15c-.1672.1575-1.0712-.6627-2.4225-.7779-1.35-.1366-2.389.5022-2.5243.3165-.0668-.0833.1115-.3773.5661-.6678a3.3414,3.3414,0,0,1,3.9483.3678C1108.8939,424.76,1109.0142,425.0811,1108.9333,425.15Z"/>
    <path class="e30680c3-8eca-48f3-abbb-cd9f230b212d" d="M1113.45,436.7426a9.0538,9.0538,0,0,1,2.2241-.208c.3454-.0067.6857-.0461.7651-.2971a1.9174,1.9174,0,0,0-.1574-1.098q-.399-1.3482-.838-2.8355a52.5517,52.5517,0,0,1-1.8342-7.3781,9.0648,9.0648,0,0,1,.8016,2.0844c.4278,1.3075.9821,3.1252,1.5622,5.1414q.418,1.4943.7964,2.8481a2.1791,2.1791,0,0,1,.0876,1.42.8425.8425,0,0,1-.5921.4695,2.27,2.27,0,0,1-.5891.0341A9.0632,9.0632,0,0,1,1113.45,436.7426Z"/>
    <path class="ecd6a4dc-eda0-4fa4-8529-93c62b86ff7b" d="M1108.9369,437.8792c-1.3408-.9524,3.7106,2.3756,6.4733,2.464a3.7484,3.7484,0,0,1-4.5291,1.13C1108.0306,440.16,1108.9369,437.8792,1108.9369,437.8792Z"/>
    <path class="a6329d7e-f84b-4cc6-90d1-3762364968ab" d="M1113.28,453.53a24.5386,24.5386,0,0,1-12.876-4.8138s2.7183,7.3083,12.5841,7.2176Z"/>
    <path class="a6329d7e-f84b-4cc6-90d1-3762364968ab" d="M1089.9086,431.9378c-.0386-.0245-.14.1106-.38.2391a1.465,1.465,0,0,1-1.089.0884c-.9034-.2711-1.7331-1.63-1.8653-3.1363a4.8168,4.8168,0,0,1,.2823-2.1127,1.6864,1.6864,0,0,1,1.028-1.1856.7438.7438,0,0,1,.8849.3476c.1262.2273.0839.3975.1285.4086.0253.02.1716-.1507.0831-.4924a.9338.9338,0,0,0-.361-.5045,1.1062,1.1062,0,0,0-.8193-.1642,2.0547,2.0547,0,0,0-1.4448,1.3907,4.9573,4.9573,0,0,0-.3641,2.363c.1559,1.6833,1.115,3.21,2.3467,3.4862a1.5642,1.5642,0,0,0,1.32-.3023C1089.9057,432.1413,1089.9384,431.9511,1089.9086,431.9378Z"/>
    <path class="bde93dd6-7599-4c95-a96a-f5ad62f32202" d="M1127.7729,412.1465a5.8441,5.8441,0,0,1-1.65.3134,10.6149,10.6149,0,0,0,4.37-4.3,8.3852,8.3852,0,0,0-.0119-8.3387c-1.5822-2.4491-5.1124-3.6125-7.6254-2.1334,1.2124-2.0035.25-4.8264-1.6893-6.1391a7.8332,7.8332,0,0,0-6.7571-.5965,23.1834,23.1834,0,0,0-6.0757,3.4707,4.9894,4.9894,0,0,0-2.7761-3.65,7.8447,7.8447,0,0,0-4.6607-.5973,11.3318,11.3318,0,0,0-9.2383,9.0919,5.9807,5.9807,0,0,0-9.9758,2.29c-.0237.0719-.0356.144-.0564.2154a4.7034,4.7034,0,0,0-2.196,1.9076,5.7281,5.7281,0,0,0-.4746,4.876,7.922,7.922,0,0,0,3.0064,3.822,6.5162,6.5162,0,0,1,1.3891,1.3528,3.341,3.341,0,0,1,.5356,1.468c-.1292,3.2908-1.8126,6.3915-2.6267,9.6267-1.1248,4.4646,1.3549,10.5731,2.7835,14.95s1.93,6.1368,4.7052,6.4318l.4346-11.778c-3.07,2.5-7.1-6.0886-4.4409-9.5035,2.6624-3.4186,5.4913-2.25,5.9793-.0868a20.0273,20.0273,0,0,0,.7094,2.4514h3.0859l-.332-2.5815s-.6218-11.4266,4.8434-12.128a5.5761,5.5761,0,0,1,4.1333.7712,11.5352,11.5352,0,0,0,5.5535.77c1.9426-.0668,4.57-2.2122,4.4988-4.1547a10.6867,10.6867,0,0,0,9.1186,3.6756,10.23,10.23,0,0,0,2.574-.6254,5.4512,5.4512,0,0,0,5.7468-1.9509c.485-.6834.5772-1.2034.4866-1.2413C1130.94,409.7062,1129.971,411.46,1127.7729,412.1465Zm-45.3315-.36a7.4709,7.4709,0,0,1-2.7055-3.4989,5.09,5.09,0,0,1,.3484-4.221,4.2367,4.2367,0,0,1,1.358-1.4552c-.5192,3.4527,1.7324,6.9508,2.3251,10.55A7.435,7.435,0,0,0,1082.4414,411.787Z"/>
    <path class="b4ca366f-644f-491c-9ca7-a85653bee4d0" d="M1180.0174,426.4362v19.6a8.0535,8.0535,0,0,0,8.0526,8.0532h33.9264v11.2114l6.0893-10.7174h0a7.1656,7.1656,0,0,0,6.6336-7.1462V426.4362a8.0529,8.0529,0,0,0-8.0526-8.0534H1188.07A8.0535,8.0535,0,0,0,1180.0174,426.4362Z"/>
    <path class="ecd6a4dc-eda0-4fa4-8529-93c62b86ff7b" d="M1198.5057,437.2848a3.3158,3.3158,0,1,1-3.3161-3.3154A3.3165,3.3165,0,0,1,1198.5057,437.2848Z"/>
    <path class="ecd6a4dc-eda0-4fa4-8529-93c62b86ff7b" d="M1211.1009,437.2848a3.3158,3.3158,0,1,1-3.3161-3.3154A3.3165,3.3165,0,0,1,1211.1009,437.2848Z"/>
    <path class="ecd6a4dc-eda0-4fa4-8529-93c62b86ff7b" d="M1223.6961,437.2848a3.3158,3.3158,0,1,1-3.3162-3.3154A3.3166,3.3166,0,0,1,1223.6961,437.2848Z"/>
    <path class="bde93dd6-7599-4c95-a96a-f5ad62f32202" d="M1206.8228,484.7149c-.6715-1.5489-43.89,36.6266-52.4913,37.923l-25.2021-32.82s-5.2365-8.3-16.4662-22.5109c-7.2489-9.1728-27.2541-7.2673-32.5127,3.9075-8.9337,18.9829-9.2457,44.19-16.1424,84.5373l-5.853,34.2681c-.0215.0639,8.6247-1.0073,8.6031-.9434l61.335-6.4362,1.5235-41.0058c12.122,12.287,15.8883,14.8557,22.1967,13.8782,15.8659-2.4575,71.3812-52.3947,71.3812-52.3947S1207.4943,486.2645,1206.8228,484.7149Z"/>
    <path class="e30680c3-8eca-48f3-abbb-cd9f230b212d" d="M1215.72,510.1126a16.1443,16.1443,0,0,1-3.1118-2.41,68.893,68.893,0,0,1-12.2839-14.4286,16.12,16.12,0,0,1-1.8824-3.4565,24.2919,24.2919,0,0,1,2.3475,3.1437c1.4024,1.9657,3.3985,4.6355,5.7823,7.4383,2.3861,2.8,4.703,5.1963,6.4192,6.8945A24.2058,24.2058,0,0,1,1215.72,510.1126Z"/>
    <path class="e30680c3-8eca-48f3-abbb-cd9f230b212d" d="M1151.8824,535.6467c-.2154-.0385.1278-2.9817.7659-6.5728s1.33-6.4718,1.5459-6.4339-.1271,2.98-.7659,6.5728S1152.0979,535.684,1151.8824,535.6467Z"/>
    <path class="e30680c3-8eca-48f3-abbb-cd9f230b212d" d="M1157.3848,534.2933c-.211.0564-1.0787-2.4663-1.9367-5.6346s-1.3832-5.7847-1.1722-5.8419,1.0779,2.4649,1.9367,5.6347S1157.5957,534.2353,1157.3848,534.2933Z"/>
    <polygon class="b28b3cf4-8209-498e-8ed5-06cda9e26417" points="1097.044 498.526 1128.975 558.9 1129.695 540.992 1097.044 498.526"/>
    <path class="e30680c3-8eca-48f3-abbb-cd9f230b212d" d="M1094.9794,495.59a13.27,13.27,0,0,1,1.4693,1.823c.9843,1.3209,2.265,3.039,3.8065,5.1064,3.2113,4.3138,7.6989,10.2321,12.7319,16.7121,5.01,6.4154,9.5406,12.2171,12.9376,16.5666,1.5712,2.0473,2.8763,3.7468,3.88,5.0543a13.36,13.36,0,0,1,1.3393,1.921,13.1371,13.1371,0,0,1-1.58-1.7278c-1.0549-1.2659-2.4263-2.9136-4.0768-4.897-3.4135-4.16-8.0854-9.9446-13.1264-16.4305-5.0365-6.486-9.46-12.4666-12.5587-16.87-1.5512-2.2-2.7829-3.9973-3.6059-5.2579A13.3117,13.3117,0,0,1,1094.9794,495.59Z"/>
    <path class="e30680c3-8eca-48f3-abbb-cd9f230b212d" d="M1095.9822,514.46a7.5017,7.5017,0,0,1-.5661-1.85c-.3007-1.1961-.7019-2.92-1.1684-5.0217l.4665.2191c-1.8639,1.0178-3.9885,2.1774-6.2726,3.4246l-.4265.2325-.1345-.4717c-.2355-.8291-.4813-1.6937-.7316-2.5747-.38-1.36-.7481-2.6789-1.101-3.9424l.5624.2281c-2.2851,1.2874-4.3739,2.4632-6.1844,3.4824l-.38.2141-.06-.4221a37.7708,37.7708,0,0,1-.6323-5.6873,37.9239,37.9239,0,0,1,1.2168,5.5915l-.44-.208c1.7842-1.0645,3.8428-2.2924,6.0958-3.6362l.4249-.2533.1376.4821c.36,1.2614.736,2.5776,1.123,3.9356.2474.8826.49,1.7479.7229,2.5777l-.56-.2384c2.3081-1.2027,4.4542-2.3207,6.3373-3.302l.3886-.202.0786.4218c.3961,2.1149.7043,3.8584.8975,5.0767A7.598,7.598,0,0,1,1095.9822,514.46Z"/>
    <path class="e30680c3-8eca-48f3-abbb-cd9f230b212d" d="M1103.4762,480.3365a7.6279,7.6279,0,0,1-1.6929-.9367c-1.0475-.6508-2.5347-1.6113-4.33-2.7977l.4873-.1664c-.6321,2.0272-1.3534,4.3376-2.1282,6.8217l-.1449.4643-.4241-.2458c-.746-.4324-1.5237-.8826-2.3163-1.3425-1.2191-.7138-2.4-1.4054-3.5324-2.0688l.5631-.2273c-.7481,2.5146-1.4322,4.8122-2.0242,6.803l-.1247.419-.3366-.2621a37.8476,37.8476,0,0,1-4.4082-3.6483,37.8641,37.8641,0,0,1,4.761,3.1736l-.4612.156c.5429-2.0051,1.1691-4.3191,1.8541-6.8506l.13-.4785.4338.251c1.1358.6568,2.3207,1.3417,3.5434,2.0481.7911.4628,1.5667.916,2.3111,1.3513l-.5684.2177c.8233-2.4694,1.5891-4.7654,2.2607-6.7794l.1381-.4152.35.2481c1.7554,1.2457,3.1891,2.285,4.1748,3.0256A7.5363,7.5363,0,0,1,1103.4762,480.3365Z"/>
    <path class="f1c9d0f3-4b1c-43d3-901d-ea26f2455203" d="M1125.8869,492.0566a7.6067,7.6067,0,0,1-1.4472-1.2844c-.88-.8647-2.12-2.1276-3.6132-3.6779l.5125-.0557c-1.0608,1.8392-2.27,3.9357-3.57,6.19l-.2428.4213-.36-.3329c-.6329-.5847-1.2934-1.1944-1.9663-1.8162-1.0327-.9635-2.034-1.8973-2.9937-2.7918l.5994-.0987c-1.2807,2.2894-2.4506,4.3813-3.4646,6.1946l-.2133.3811-.2711-.3291a37.9277,37.9277,0,0,1-3.5025-4.5247,37.8257,37.8257,0,0,1,3.9511,4.1384l-.4842.0521c.9686-1.8378,2.0859-3.9588,3.3087-6.2795l.2309-.4382.3685.34c.965.8893,1.9715,1.817,3.0094,2.7746.6708.624,1.3289,1.2361,1.9595,1.8238l-.6023.0876c1.3439-2.2287,2.5932-4.3012,3.69-6.12l.2259-.3744.2868.3187c1.44,1.5994,2.6119,2.9268,3.411,3.8658A7.5845,7.5845,0,0,1,1125.8869,492.0566Z"/>
    <path class="e30680c3-8eca-48f3-abbb-cd9f230b212d" d="M1184.9783,530.4854a7.5346,7.5346,0,0,1-1.274-1.4553c-.7645-.9679-1.8365-2.3772-3.1231-4.1027l.5156.0088c-1.2836,1.6923-2.7464,3.62-4.32,5.6933l-.2935.3878-.3157-.3759c-.555-.66-1.133-1.3475-1.7228-2.0489-.9032-1.0851-1.78-2.1378-2.6192-3.1458l.6069-.0224c-1.5578,2.11-2.9812,4.04-4.215,5.7111l-.2592.3507-.2281-.36a37.9277,37.9277,0,0,1-2.9069-4.929,37.8108,37.8108,0,0,1,3.4,4.602l-.4865-.01c1.1915-1.7012,2.5666-3.6646,4.0715-5.8137l.2839-.4056.3231.3833c.8445,1.0036,1.7271,2.05,2.6364,3.13.5876.7035,1.1633,1.3936,1.7152,2.0554l-.6091.0118c1.6135-2.0427,3.1133-3.9423,4.43-5.6085l.2713-.3432.2443.3522c1.2279,1.768,2.2233,3.2321,2.8987,4.2639A7.5922,7.5922,0,0,1,1184.9783,530.4854Z"/>
    <path class="f1c9d0f3-4b1c-43d3-901d-ea26f2455203" d="M1148.397,527.3974a7.5416,7.5416,0,0,1-1.5876-1.1062c-.9746-.7548-2.3549-1.8639-4.0189-3.2292l.5023-.1151c-.838,1.9507-1.7933,4.1748-2.8207,6.5661l-.1917.4465-.3966-.2883c-.6975-.5066-1.4249-1.0348-2.1663-1.5734-1.138-.8357-2.2419-1.6461-3.3-2.4225l.5839-.1678c-1.0036,2.424-1.92,4.6384-2.7152,6.5579l-.1672.4035-.3082-.295a37.8289,37.8289,0,0,1-4.0085-4.0842,38.0378,38.0378,0,0,1,4.4089,3.6481l-.4747.1078c.7466-1.9381,1.6083-4.1756,2.5509-6.6234l.1776-.462.4056.2941,3.314,2.4032c.7391.5416,1.4642,1.0727,2.1594,1.5816l-.5883.1582c1.0741-2.3712,2.0718-4.576,2.9477-6.51l.18-.3982.3224.283c1.618,1.42,2.9366,2.6008,3.8407,3.44A7.5942,7.5942,0,0,1,1148.397,527.3974Z"/>
    <path class="f1c9d0f3-4b1c-43d3-901d-ea26f2455203" d="M1200.758,518.8262a7.5508,7.5508,0,0,1-.3915-1.8942c-.1886-1.2191-.427-2.9737-.6968-5.1087l.4443.2614c-1.9507.84-4.1735,1.7978-6.5638,2.8273l-.4466.1917-.09-.4821c-.1574-.8475-.3216-1.7309-.49-2.632-.2517-1.389-.4953-2.7366-.7294-4.0277l.5387.2794c-2.3951,1.07-4.5842,2.0465-6.4808,2.8941l-.3989.1775-.0208-.4264a37.8437,37.8437,0,0,1-.1011-5.7207,37.9485,37.9485,0,0,1,.6917,5.68l-.419-.2481c1.8749-.8937,4.0389-1.9255,6.4071-3.0539l.4473-.2133.092.4926c.2415,1.29.4933,2.6357.7525,4.0233.1643.9019.3254,1.7858.48,2.6335l-.5357-.29c2.41-.9828,4.6512-1.8964,6.6174-2.6988l.4048-.1649.0394.4272c.1977,2.1432.3433,3.9074.4221,5.1383A7.54,7.54,0,0,1,1200.758,518.8262Z"/>
    <path class="e30680c3-8eca-48f3-abbb-cd9f230b212d" d="M1127.8026,502.5851a7.5682,7.5682,0,0,1-1.63,1.0415c-1.0712.6106-2.6245,1.46-4.5233,2.4738l.0862-.5082,4.9824,5.1228.3386.3484-.4182.2562c-.7354.4494-1.502.9182-2.2843,1.3959-1.2079.731-2.3793,1.44-3.5026,2.1186l.0691-.6032c1.8535,1.8564,3.5473,3.553,5.0151,5.0225l.3082.309-.3907.1716a37.7763,37.7763,0,0,1-5.3085,2.1357,37.9442,37.9442,0,0,1,5.06-2.6729l-.0824.4808c-1.5036-1.4337-3.24-3.0866-5.1383-4.8962l-.3589-.3417.4272-.2623c1.1188-.6857,2.2865-1.4,3.49-2.1386.7837-.4747,1.5526-.9405,2.2894-1.3877l-.0794.6039c-1.7778-1.901-3.4313-3.6682-4.8821-5.2193l-.2987-.32.3848-.1886c1.9315-.9493,3.5287-1.7146,4.65-2.2279A7.5664,7.5664,0,0,1,1127.8026,502.5851Z"/>
    <path class="f1c9d0f3-4b1c-43d3-901d-ea26f2455203" d="M1155.7305,535.6528a7.6,7.6,0,0,1-1.6307,1.0414c-1.0712.6107-2.6245,1.4605-4.5233,2.4737l.0855-.5081c1.48,1.5229,3.1683,3.2582,4.9823,5.1228l.34.3491-.4189.2556c-.7354.45-1.502.9182-2.2836,1.3965-1.2087.731-2.38,1.44-3.5026,2.1187l.0684-.6033c1.8541,1.8558,3.5479,3.5524,5.0157,5.0218l.3084.309-.3908.1723a37.8737,37.8737,0,0,1-5.3084,2.135,38.1035,38.1035,0,0,1,5.0588-2.6728l-.0816.48c-1.5044-1.4322-3.24-3.0858-5.1393-4.8953l-.3579-.3419.427-.2614c1.1188-.6864,2.2859-1.401,3.49-2.1395.7836-.4739,1.5518-.94,2.29-1.3876l-.08.6047c-1.7783-1.9017-3.4319-3.6683-4.8821-5.2194l-.2992-.32.3855-.1886c1.9314-.9493,3.5277-1.7144,4.6494-2.2285A7.6219,7.6219,0,0,1,1155.7305,535.6528Z"/>
    <path class="f1c9d0f3-4b1c-43d3-901d-ea26f2455203" d="M1100.2745,535.2026a7.5721,7.5721,0,0,1-.5661-1.8506c-.3-1.1959-.702-2.9209-1.1678-5.0216l.4658.2191c-1.8638,1.0178-3.9876,2.1774-6.2726,3.4246l-.4264.2325-.1338-.4717c-.2362-.8291-.4821-1.6937-.7325-2.5747-.38-1.36-.7473-2.6789-1.1-3.9424l.5623.2281c-2.2857,1.2866-4.374,2.4632-6.1842,3.4824l-.38.2147-.061-.4227a38.0346,38.0346,0,0,1-.6321-5.6873,37.8194,37.8194,0,0,1,1.2168,5.5915l-.44-.208c1.7843-1.0645,3.8429-2.2924,6.0959-3.6362l.4257-.2533.1373.4813c.36,1.2622.7355,2.5785,1.1233,3.9364.2466.8826.49,1.748.722,2.5777l-.56-.2384c2.3079-1.2028,4.4549-2.3207,6.338-3.302l.3878-.202.0787.4211c.396,2.1156.7042,3.8591.8975,5.0774A7.6068,7.6068,0,0,1,1100.2745,535.2026Z"/>
    <path class="e30680c3-8eca-48f3-abbb-cd9f230b212d" d="M1125.6847,549.565a7.5866,7.5866,0,0,1-.566-1.85c-.3-1.1961-.7013-2.921-1.1678-5.0217l.4665.22c-1.8639,1.0178-3.9883,2.1766-6.2734,3.4246l-.4265.2317-.1337-.4708c-.2354-.8292-.4814-1.6938-.7324-2.5748-.38-1.3609-.7473-2.6789-1.1-3.9431l.5625.2288c-2.2859,1.2866-4.374,2.4633-6.1844,3.4824l-.38.2141-.06-.422a37.7459,37.7459,0,0,1-.6322-5.6874,38.0176,38.0176,0,0,1,1.2161,5.5907l-.4406-.2079c1.7844-1.0638,3.8428-2.2924,6.096-3.6355l.4255-.2541.1375.4814c.36,1.2629.7355,2.5792,1.1233,3.9372.2474.8825.4894,1.7471.722,2.5776l-.56-.2391c2.308-1.2019,4.4548-2.3207,6.338-3.3013l.3878-.202.0788.42c.3959,2.1156.7042,3.86.8973,5.0781A7.5913,7.5913,0,0,1,1125.6847,549.565Z"/>
    <path class="f1c9d0f3-4b1c-43d3-901d-ea26f2455203" d="M1088.4883,581.25a7.58,7.58,0,0,1-.566-1.85c-.3009-1.1959-.7021-2.9209-1.1686-5.0216l.4665.2183c-1.8638,1.0178-3.9877,2.1782-6.2726,3.4247l-.4265.2332-.1337-.4724c-.2363-.8291-.4821-1.6937-.7324-2.5748-.38-1.36-.7481-2.6788-1.1-3.9431l.5625.2288c-2.2859,1.2867-4.3747,2.4633-6.1844,3.4825l-.38.214-.0609-.422a37.9672,37.9672,0,0,1-.6321-5.6874,37.8367,37.8367,0,0,1,1.2168,5.5923l-.4406-.21c1.7844-1.0637,3.8428-2.2909,6.0958-3.6355l.4257-.254.1375.4829c.36,1.2613.7355,2.5776,1.1231,3.9356.2466.8826.49,1.7471.7221,2.5777l-.56-.2392c2.3081-1.202,4.4549-2.3207,6.3381-3.3012l.3878-.2021.0786.4219c.3961,2.1156.7043,3.8584.8975,5.0767A7.61,7.61,0,0,1,1088.4883,581.25Z"/>
    <path class="e30680c3-8eca-48f3-abbb-cd9f230b212d" d="M1089.2059,548.0065a7.5773,7.5773,0,0,1-1.5987-1.09c-.9828-.7444-2.3741-1.8394-4.0522-3.187l.5007-.12c-.8179,1.96-1.75,4.1927-2.7523,6.5951l-.1873.4473-.4-.2839c-.7028-.4991-1.4351-1.0207-2.1824-1.551-1.1464-.8246-2.2584-1.6224-3.3244-2.3875l.5816-.1739c-.9782,2.4336-1.8719,4.6577-2.6467,6.5847l-.1628.4056-.3119-.2927a37.8636,37.8636,0,0,1-4.05-4.0411,37.96,37.96,0,0,1,4.4459,3.6014l-.4739.1129c.7272-1.9463,1.5652-4.1913,2.4825-6.6486l.1732-.4651.4086.2912c1.0705.7593,2.187,1.5512,3.3384,2.3683.745.5334,1.4753,1.0578,2.1758,1.56l-.5861.1634c1.0489-2.3815,2.0243-4.5968,2.88-6.54l.176-.4.3254.2793c1.632,1.4024,2.9632,2.57,3.8754,3.3992A7.5822,7.5822,0,0,1,1089.2059,548.0065Z"/>
    <path class="e30680c3-8eca-48f3-abbb-cd9f230b212d" d="M1102.48,548.9038a7.5361,7.5361,0,0,1-1.5525,1.1529c-1.0259.6849-2.5161,1.6417-4.3384,2.7858l.05-.5125c1.5839,1.4144,3.389,3.0263,5.3309,4.76l.3624.3239-.4.2837c-.702.5007-1.4336,1.0222-2.18,1.5541-1.1536.8141-2.2723,1.6031-3.3443,2.3594l.026-.6063c1.98,1.722,3.7886,3.2939,5.3568,4.6577l.3291.2868-.3781.1976a38.03,38.03,0,0,1-5.1444,2.5049,37.7335,37.7335,0,0,1,4.8584-3.0234l-.0484.4858c-1.6008-1.3238-3.4483-2.8511-5.47-4.5225l-.3819-.3164.4079-.2914c1.0676-.762,2.1818-1.5569,3.3311-2.3785.748-.529,1.4819-1.0474,2.1854-1.5452l-.0363.6078c-1.9077-1.7711-3.681-3.4172-5.2372-4.8628l-.32-.2971.37-.2155c1.86-1.0832,3.3994-1.9583,4.4817-2.55A7.5444,7.5444,0,0,1,1102.48,548.9038Z"/>
    <path class="f1c9d0f3-4b1c-43d3-901d-ea26f2455203" d="M1117.1269,559.28a7.59,7.59,0,0,1-1.0674,1.615c-.731.9924-1.8058,2.3994-3.13,4.096l-.1278-.4991c1.9708.79,4.2171,1.6907,6.6329,2.66l.4509.1812-.2785.4041c-.49.7086-1,1.4486-1.5206,2.2034-.8068,1.1573-1.5905,2.28-2.34,3.3577l-.1827-.58c2.4478.9435,4.6845,1.8066,6.6226,2.5539l.4071.1576-.2876.3149a37.7223,37.7223,0,0,1-3.9846,4.1065,37.9852,37.9852,0,0,1,3.539-4.4958l.12.4726c-1.956-.7-4.2128-1.5067-6.6835-2.3891l-.4665-.1664.2845-.4131c.7437-1.08,1.5206-2.2078,2.3215-3.371.5229-.7519,1.0362-1.49,1.5288-2.1973l.1722.5837c-2.3964-1.0161-4.625-1.96-6.58-2.7887l-.4026-.1708.2749-.3283c1.38-1.6521,2.5287-3,3.3451-3.9238A7.5491,7.5491,0,0,1,1117.1269,559.28Z"/>
    <path class="b3f6a253-cfe6-402a-9c45-e54feb4856a6" d="M1108.7854,584.0738a2.5543,2.5543,0,0,1,.1775.5022c.11.3759.2541.87.4376,1.4976.3715,1.3222.9055,3.2775,1.5318,5.815.6092,2.5421,1.3958,5.6472,1.9263,9.3527a9.852,9.852,0,0,1-.7823,5.9428,19.3161,19.3161,0,0,1-3.8934,5.5268l.08-.257c3.9854,18.9177,9.5718,45.4333,15.7539,74.7791,6.01,28.8556,11.3776,54.991,15.172,73.9279,1.8974,9.4671,3.4017,17.1363,4.3964,22.4433.4968,2.655.8668,4.7186,1.0949,6.1227a8.8769,8.8769,0,0,1,.2443,2.1557s-.12-.731-.401-2.1261c-.2935-1.44-.7094-3.4824-1.2407-6.0929-1.106-5.3321-2.69-12.9717-4.6428-22.3912-3.9482-18.9444-9.3882-45.0426-15.3987-73.8773-6.09-29.3653-11.5923-55.8987-15.5183-74.8283l-.03-.1471.1106-.11c3.2308-3.2345,5.4081-7.3232,4.6221-11.0152-.4829-3.6682-1.2256-6.7912-1.7881-9.3363-.595-2.5049-1.06-4.4644-1.3884-5.8448-.1522-.6358-.2718-1.1365-.3631-1.5168A2.7941,2.7941,0,0,1,1108.7854,584.0738Z"/>
    <path class="b3f6a253-cfe6-402a-9c45-e54feb4856a6" d="M1076.7594,587.7257a2.7862,2.7862,0,0,1,.47,1.034,12.1372,12.1372,0,0,1,.5705,3.0413,14.0629,14.0629,0,0,1-11.6019,14.8646,12.1865,12.1865,0,0,1-3.09.1872,2.7583,2.7583,0,0,1-1.1158-.2066,38.9244,38.9244,0,0,0,4.09-.5288,14.2234,14.2234,0,0,0,11.157-14.2956A39.63,39.63,0,0,0,1076.7594,587.7257Z"/>
    <path class="b3f6a253-cfe6-402a-9c45-e54feb4856a6" d="M1102.24,589.3481c-.0335-.0312.0549-.22.3618-.416a2.0686,2.0686,0,0,1,3.0516,1.49,2.3636,2.3636,0,0,1-1.3743,2.4617,2.415,2.415,0,0,1-2.7091-.7681,2.1553,2.1553,0,0,1-.2571-2.2761c.6166-1.2346,1.6254-1.2584,1.59-1.1618.0587.11-.725.3506-1.0682,1.3684a1.6069,1.6069,0,0,0,.2949,1.6015,1.7356,1.7356,0,0,0,1.8519.5007,1.6791,1.6791,0,0,0,.9465-1.6446,1.428,1.428,0,0,0-.9851-1.2376A2.7575,2.7575,0,0,0,1102.24,589.3481Z"/>
    <path class="b3f6a253-cfe6-402a-9c45-e54feb4856a6" d="M1134.3947,592.7356a5.819,5.819,0,0,1-2.9506,1.022,10.7073,10.7073,0,0,1-11.827-7.6574,5.8292,5.8292,0,0,1-.2764-3.11c.1375-.009.1634,1.1871.8083,2.9343a10.9379,10.9379,0,0,0,11.2379,7.2755C1133.2456,593.0727,1134.3472,592.6078,1134.3947,592.7356Z"/>
    <path class="b3f6a253-cfe6-402a-9c45-e54feb4856a6" d="M1151.1024,825.3351a5.674,5.674,0,0,1-1.5177.1871q-1.7348.0959-4.1429.2317c-3.7047.1754-8.4345.4-13.6656.6494-5.232.27-9.961.514-13.6649.7057q-2.4113.1048-4.1452.1812a5.664,5.664,0,0,1-1.5288-.0371,5.72,5.72,0,0,1,1.5051-.27c.9731-.1249,2.3838-.2718,4.13-.4323,3.4907-.3195,8.3216-.6731,13.6649-.939s10.1838-.3907,13.6894-.4175c1.7525-.0149,3.1713-.0074,4.1518.0209A5.6567,5.6567,0,0,1,1151.1024,825.3351Z"/>
    <path class="b3f6a253-cfe6-402a-9c45-e54feb4856a6" d="M1081.65,605.0877c.2132-.0505,12.194,49.3378,26.7571,110.3,14.5674,60.9844,26.2006,110.4453,25.9881,110.4958s-12.1909-49.3272-26.7592-110.3115C1093.0725,654.61,1081.4371,605.1383,1081.65,605.0877Z"/>
    <path class="b3f6a253-cfe6-402a-9c45-e54feb4856a6" d="M1120.58,606.9954a1.6663,1.6663,0,0,1,.2778.3224c.1961.2615.4428.5883.75.9954.68.9331,1.6237,2.2272,2.8214,3.87,2.4581,3.43,5.9539,8.31,10.2588,14.3178,4.3182,6.0765,9.4431,13.29,15.13,21.2933,2.8386,4.0189,5.8159,8.2339,8.9025,12.6034,2.9959,4.3933,6.07,9.3006,6.9,15.0844.8232,5.7988-.8839,11.3614-2.6452,16.3726-1.8259,5.04-3.6519,9.8652-5.4273,14.4531-3.5517,9.1743-6.94,17.3621-9.8681,24.1994-2.9345,6.8357-5.4126,12.321-7.16,16.0963l-2.0437,4.3323c-.2265.4561-.4077.8246-.5525,1.1158a1.78,1.78,0,0,1-.2125.37,1.64,1.64,0,0,1,.1389-.4027c.1255-.3016.2837-.679.4806-1.15.46-1.0578,1.0979-2.5273,1.9076-4.3917,1.66-3.8125,4.059-9.329,6.9258-16.1885,2.86-6.861,6.1917-15.0623,9.7024-24.2424,1.754-4.5894,3.5673-9.424,5.3768-14.45,1.7466-4.99,3.3889-10.4357,2.5926-16.0025-.7926-5.5627-3.7818-10.3837-6.7555-14.7563-3.0718-4.3769-6.035-8.5978-8.8587-12.6226-5.6361-8.0407-10.7143-15.2866-14.9924-21.3914-4.2186-6.0691-7.644-10.9973-10.0531-14.4634-1.1462-1.6789-2.0494-3.0028-2.7-3.955-.2806-.4264-.5066-.7681-.6856-1.04A1.7609,1.7609,0,0,1,1120.58,606.9954Z"/>
    <polygon class="e30680c3-8eca-48f3-abbb-cd9f230b212d" points="1197.894 486.267 1231.873 461.474 1233.546 464.138 1199.787 489.236 1197.894 486.267"/>
    <path class="e6972742-a1e4-4741-80bf-65f56aa6a951" d="M1206.2923,485.5046s4.5582-11.8628,5.5842-14.39,2.7619-6.9294,3.41-7.0178,3.0234.2837-.0788,7.83,3.67,2.9337,3.67,2.9337l6.5439-4.6831s5.1754,15.4492,2.2278,20.1017a74.813,74.813,0,0,1-7.7517,9.8274Z"/>
  </g>
</svg>
